<?xml version="1.0" encoding="utf-8"?>
<!-- Generator: Adobe Illustrator 18.1.1, SVG Export Plug-In . SVG Version: 6.00 Build 0)  -->
<!DOCTYPE svg PUBLIC "-//W3C//DTD SVG 1.1//EN" "http://www.w3.org/Graphics/SVG/1.1/DTD/svg11.dtd">
<svg version="1.1" id="Layer_1" xmlns="http://www.w3.org/2000/svg" xmlns:xlink="http://www.w3.org/1999/xlink" x="0px" y="0px"
	 width="149px" height="160.8px" viewBox="-177 173.2 149 160.8" enable-background="new -177 173.2 149 160.8"
	 xml:space="preserve">
<path fill="#FFFFFF" d="M-39,334h-127c-6.1,0-11-4.9-11-11V184.2c0-6.1,4.9-11,11-11h127c6,0,11,4.9,11,11V323
	C-28,329.1-33,334-39,334z"/>
<g>
	<g>
		<g>
			<g>
				<path fill="#0E0809" d="M-104.8,223.2c-0.3,0-0.3-0.1-0.5-0.1c-0.3,0-0.3-0.1-0.5-0.1c-0.3,0-0.3,0.2-0.5,0.2
					c-0.3,0-0.3,0-0.5,0c-0.3,0-0.3-0.1-0.5-0.1s-0.3,0.1-0.4,0.1c-0.1,0.1-0.3,0.1-0.4,0.2c-0.1,0.1-0.1,0.3-0.1,0.4
					c0,0.1-0.1,0.3-0.2,0.4c0,0.1-0.1,0.3-0.2,0.4s-0.1,0.3-0.1,0.5c-0.1,0.1-0.1,0.3-0.2,0.4c-0.1,0.1,0,0.3-0.1,0.5
					c-0.1,0.1-0.1,0.3-0.2,0.4c-0.1,0.1-0.3,0.2-0.4,0.4c-0.1,0.1-0.2,0.3-0.3,0.4c-0.1,0.1-0.2,0.3-0.3,0.4
					c-0.1,0.1-0.2,0.3-0.3,0.4c-0.1,0.1-0.1,0.3-0.2,0.4c-0.1,0.1-0.2,0.3-0.3,0.4c-0.1,0.1-0.2,0.2-0.3,0.3
					c-0.1,0.1-0.2,0.3-0.3,0.4c-0.1,0.1-0.3,0.2-0.4,0.3s-0.2,0.2-0.3,0.4c-0.1,0.1-0.1,0.3-0.2,0.4c-0.1,0.1-0.2,0.2-0.4,0.3
					c-0.1,0.1-0.2,0.2-0.3,0.4c-0.1,0.1-0.3,0.1-0.5,0.2c-0.1,0.1-0.2,0.2-0.3,0.4c-0.1,0.1-0.3,0.2-0.4,0.3
					c-0.1,0.1-0.3,0.2-0.4,0.3c-0.1,0.1-0.2,0.3-0.3,0.4s-0.2,0.2-0.4,0.3c-0.1,0.1-0.3,0.1-0.5,0.2c-0.1,0.1-0.3,0.2-0.4,0.3
					c-0.1,0.1-0.2,0.3-0.3,0.4c-0.1,0.1-0.3,0.1-0.5,0.2c-0.1,0.1-0.2,0.2-0.4,0.3c-0.1,0.1-0.3,0.1-0.5,0.2
					c-0.1,0.1-0.2,0.3-0.3,0.4c-0.1,0.1-0.3,0.1-0.5,0.1c-0.1,0.1-0.2,0.3-0.3,0.4c-0.1,0.1-0.3,0.2-0.4,0.2
					c-0.1,0.1-0.3,0.2-0.4,0.3s-0.4,0-0.5,0.1c-0.1,0.1-0.2,0.2-0.4,0.3c-0.1,0.1-0.3,0.1-0.5,0.2c-0.1,0.1-0.3,0.2-0.4,0.2
					c-0.1,0.1-0.3,0.1-0.5,0.2c-0.1,0.1-0.2,0.3-0.4,0.4c-0.1,0.1-0.3,0.1-0.5,0.1c-0.1,0.1-0.2,0.2-0.4,0.3c-0.1,0.1-0.3,0-0.5,0.1
					c-0.1,0.1-0.3,0.2-0.4,0.2c-0.1,0.1-0.3,0.1-0.5,0.2c-0.1,0.1-0.3,0.1-0.5,0.2c-0.1,0.1-0.3,0.2-0.4,0.3
					c-0.1,0.1-0.3,0.1-0.5,0.2c-0.2,0.1-0.3,0.1-0.5,0.2c-0.2,0.1-0.3,0.1-0.5,0.2c-0.2,0.1-0.3,0.2-0.4,0.3c-0.2,0.1-0.3,0-0.5,0.1
					s-0.3,0.1-0.5,0.2s-0.3,0.1-0.5,0.2s-0.3,0.1-0.5,0.1c-0.2,0.1-0.3,0.2-0.4,0.2c-0.2,0.1-0.3,0-0.5,0.1
					c-0.2,0.1-0.3,0.2-0.4,0.3c-0.2,0.1-0.3,0-0.5,0.1c-0.2,0.1-0.3,0.1-0.5,0.2c-0.1,0-0.3,0.1-0.4,0.2c-0.1,0.1-0.1,0.3-0.1,0.4
					c-0.1,0.2-0.2,0.4-0.1,0.7c0.1,0.2,0.1,0.2,0.1,0.4c0.1,0.2,0.1,0.2,0.2,0.4c0.1,0.2,0.1,0.2,0.2,0.4c0.1,0.2,0.2,0.2,0.3,0.4
					c0.1,0.2,0,0.2,0.1,0.5c0.1,0.2,0.2,0.4,0.4,0.5s0.4,0.2,0.6,0.2c0.1,0,0.2-0.1,0.3-0.1c0.2,0,0.3-0.1,0.5-0.2
					c0.2-0.1,0.3-0.1,0.5-0.1c0.2-0.1,0.3,0,0.5-0.1c0.2-0.1,0.3-0.2,0.4-0.2c0.2-0.1,0.3,0,0.5-0.1s0.3-0.1,0.5-0.2
					c0.2-0.1,0.3-0.1,0.5-0.2c0.2-0.1,0.3-0.1,0.5-0.2c0.2-0.1,0.3-0.1,0.5-0.1c0.2-0.1,0.3-0.1,0.5-0.1c0.2-0.1,0.3-0.3,0.4-0.3
					c0.2-0.1,0.3-0.1,0.5-0.2c0.2-0.1,0.4,0,0.5,0c0.2-0.1,0.3-0.2,0.4-0.2c0.2-0.1,0.3-0.1,0.5-0.1c0.2-0.1,0.3-0.1,0.4-0.2
					c0.1-0.1,0.3-0.2,0.4-0.3c0.1-0.1,0.3-0.2,0.4-0.2c0.1-0.1,0.3-0.1,0.5-0.2c0.1-0.1,0.3-0.2,0.4-0.2c0.1-0.1,0.3-0.2,0.4-0.2
					c0.1-0.1,0.3-0.1,0.4-0.2c0.1-0.1,0.3-0.1,0.4-0.2c0.1-0.1,0.3-0.2,0.4-0.2c0.1-0.1,0.3-0.2,0.4-0.2c0.1-0.1,0.3-0.1,0.5-0.2
					c0.1-0.1,0.3-0.2,0.4-0.3c0.1-0.1,0.3-0.2,0.4-0.3c0.1-0.1,0.3-0.2,0.4-0.3c0.1-0.1,0.3-0.1,0.5-0.2c0.1-0.1,0.3-0.1,0.5-0.2
					c0.1-0.1,0.3-0.2,0.4-0.2c0.1-0.1,0.3-0.2,0.4-0.3c0.1-0.1,0.3-0.2,0.4-0.3c0.1-0.1,0.2-0.2,0.4-0.3c0.1-0.1,0.3-0.2,0.4-0.3
					c0.1-0.1,0.3-0.2,0.4-0.3c0.1-0.1,0.3-0.1,0.4-0.2c0.1-0.1,0.2-0.2,0.4-0.3c0.1-0.1,0.3-0.2,0.4-0.3c0.1-0.1,0.2-0.3,0.3-0.4
					c0.1-0.1,0.3-0.1,0.4-0.2c0.1-0.1,0.3-0.2,0.4-0.3c0.1-0.1,0.2-0.2,0.4-0.3c0.1-0.1,0.3-0.2,0.4-0.3c0.1-0.1,0.2-0.2,0.3-0.3
					c0.1-0.1,0.1-0.3,0.3-0.4c0.1-0.1,0.3-0.2,0.4-0.3c0.1-0.1,0.3-0.2,0.4-0.3s0.2-0.3,0.3-0.4c0.1-0.1,0.4-0.1,0.6-0.1
					s0.5,0.1,0.5,0.4c0,0.2-0.1,0.2-0.1,0.5c0,0.2,0.1,0.2,0.1,0.5c0,0.2-0.1,0.2-0.1,0.5c0,0.2,0,0.2,0,0.5c0,0.2,0.1,0.2,0.1,0.5
					c0,0.2,0.1,0.2,0.1,0.5c0,0.2,0,0.2,0,0.5c0,0.2-0.1,0.2-0.1,0.5c0,0.3,0.1,0.2,0.1,0.5c0,0.2,0,0.2,0,0.5
					c0,0.2-0.1,0.2-0.1,0.5c0,0.2,0.2,0.2,0.2,0.5c0,0.2-0.1,0.2-0.1,0.5c0,0.2,0.1,0.2,0.1,0.5c0,0.2,0.1,0.2,0.1,0.5
					c0,0.2-0.1,0.2-0.1,0.5c0,0.3,0.1,0.2,0.1,0.5v0.1c0,0.1-0.1,0.3-0.1,0.5c0,0.1-0.1,0.3-0.2,0.4c-0.1,0.1-0.1,0.3-0.2,0.4
					s-0.1,0.3-0.1,0.5c-0.1,0.1-0.2,0.3-0.2,0.4c-0.1,0.1-0.1,0.3-0.2,0.4s-0.2,0.3-0.3,0.4c-0.1,0.1-0.2,0.3-0.2,0.4
					c-0.1,0.1-0.1,0.3-0.2,0.4c-0.1,0.1-0.2,0.3-0.3,0.4c-0.1,0.1-0.3,0.2-0.4,0.3c-0.1,0.1-0.1,0.3-0.2,0.4
					c-0.1,0.1-0.3,0.2-0.4,0.3s-0.1,0.3-0.2,0.4s-0.2,0.3-0.3,0.4c-0.1,0.1-0.3,0.2-0.4,0.3s-0.3,0.2-0.4,0.3
					c-0.1,0.1-0.2,0.3-0.3,0.4c-0.1,0.1-0.2,0.2-0.3,0.4c-0.1,0.1-0.2,0.2-0.4,0.3c-0.1,0.1-0.2,0.3-0.3,0.4s-0.3,0.1-0.4,0.2
					c-0.1,0.1-0.2,0.3-0.3,0.4c-0.1,0.1-0.3,0.2-0.4,0.3s-0.2,0.3-0.3,0.4s-0.3,0.2-0.4,0.3c-0.1,0.1-0.3,0.1-0.5,0.2
					c-0.1,0.1-0.2,0.2-0.4,0.3c-0.1,0.1-0.2,0.2-0.4,0.3c-0.1,0.1-0.3,0.1-0.5,0.2c-0.1,0.1-0.2,0.2-0.4,0.3
					c-0.1,0.1-0.3,0.1-0.5,0.2c-0.1,0.1-0.3,0.2-0.4,0.2c-0.1,0.1-0.2,0.3-0.3,0.4c-0.1,0.1-0.3,0.2-0.4,0.2
					c-0.1,0.1-0.3,0.1-0.4,0.2c-0.1,0.1-0.3,0.2-0.4,0.3s-0.3,0.1-0.4,0.2c-0.1,0.1-0.3,0.1-0.5,0.1c-0.1,0.1-0.2,0.2-0.4,0.3
					c-0.1,0.1-0.3,0.1-0.5,0.2c-0.1,0.1-0.3,0.2-0.4,0.2c-0.1,0.1-0.3,0.1-0.5,0.2c-0.1,0.1-0.3,0.2-0.4,0.2
					c-0.1,0.1-0.3,0.2-0.4,0.2c-0.1,0.1-0.3,0.1-0.5,0.2c-0.1,0.1-0.3,0.1-0.5,0.1c-0.2,0.1-0.3,0-0.5,0.1c-0.2,0.1-0.3,0.1-0.5,0.1
					c-0.2,0.1-0.3,0.2-0.4,0.3c-0.2,0.1-0.3,0.1-0.5,0.1c-0.2,0.1-0.3,0.1-0.5,0.1c-0.2,0.1-0.3,0.2-0.4,0.3c-0.2,0-0.3,0-0.5,0.1
					c-0.2,0-0.3,0-0.5,0.1c-0.2,0-0.3,0.2-0.4,0.2c-0.2,0-0.3,0-0.5,0s-0.3,0.2-0.4,0.3c-0.2,0-0.3,0.1-0.5,0.1
					c-0.2,0-0.3,0-0.5,0.1c-0.2,0-0.3,0.1-0.5,0.1c-0.2,0-0.3,0.1-0.5,0.1c-0.2,0-0.3,0.1-0.5,0.2c-0.2,0-0.3,0-0.5,0
					c-0.2,0-0.3,0.2-0.5,0.2c-0.2,0-0.3,0.1-0.5,0.1c-0.2,0-0.3,0-0.5,0.1c-0.2,0-0.3,0-0.5,0.1c-0.2,0-0.3,0-0.5,0
					c-0.2,0-0.3,0.2-0.5,0.2c-0.2,0-0.3,0-0.5,0.1c-0.2,0-0.3-0.1-0.5,0c-0.2,0-0.3,0.1-0.5,0.1c-0.2,0-0.3,0.1-0.5,0.1
					c-0.2,0-0.3,0-0.5,0c-0.1,0-0.3,0.1-0.4,0.2c-0.1,0.1-0.2,0.2-0.3,0.3c-0.1,0.2-0.2,0.4-0.1,0.6c0,0.2,0.1,0.2,0.1,0.4
					s0,0.2,0,0.4c0,0.2,0.1,0.2,0.1,0.4c0,0.2,0,0.2,0,0.4s0,0.2,0.1,0.4c0,0.2,0.2,0.3,0.3,0.4c0.1,0.1,0.2,0.3,0.4,0.3
					c0.2,0.1,0.3,0.2,0.5,0.1c0.2,0,0.3,0,0.5-0.1c0.2,0,0.3-0.2,0.5-0.2c0.2,0,0.3-0.1,0.5-0.1c0.2,0,0.3,0,0.5,0
					c0.2,0,0.3-0.1,0.5-0.1c0.2,0,0.3,0,0.5-0.1c0.2,0,0.3-0.1,0.5-0.2c0.2,0,0.3,0.1,0.5,0c0.2,0,0.3-0.1,0.5-0.2
					c0.2,0,0.3-0.1,0.5-0.2c0.2,0,0.3,0,0.5-0.1c0.2,0,0.3,0,0.5,0c0.2,0,0.3-0.1,0.5-0.2c0.2,0,0.3-0.1,0.5-0.1
					c0.2,0,0.3,0,0.5-0.1c0.2,0,0.3-0.1,0.5-0.2c0.2,0,0.3-0.1,0.5-0.2c0.2,0,0.3,0,0.5-0.1c0.2,0,0.3-0.2,0.4-0.2
					c0.2,0,0.3-0.1,0.5-0.1c0.2,0,0.3,0,0.5-0.1c0.2,0,0.3-0.1,0.5-0.1c0.2,0,0.3-0.1,0.5-0.1c0.2,0,0.3-0.2,0.4-0.3
					c0.2,0,0.3,0,0.5-0.1c0.2-0.1,0.3-0.1,0.4-0.2c0.2-0.1,0.3-0.1,0.5-0.1c0.2-0.1,0.3-0.2,0.4-0.3c0.2-0.1,0.4,0,0.5,0
					c0.2-0.1,0.3-0.1,0.5-0.2c0.2-0.1,0.3-0.2,0.4-0.2c0.2-0.1,0.3-0.1,0.5-0.1c0.1-0.1,0.3-0.1,0.5-0.2c0.1-0.1,0.2-0.3,0.4-0.3
					c0.1-0.1,0.3,0,0.5-0.1c0.1-0.1,0.3-0.2,0.4-0.3c0.1-0.1,0.3-0.1,0.5-0.1c0.1-0.1,0.3-0.1,0.5-0.2c0.1-0.1,0.3-0.2,0.4-0.2
					c0.1-0.1,0.2-0.2,0.4-0.3c0.1-0.1,0.3-0.1,0.5-0.1c0.1-0.1,0.2-0.2,0.4-0.3c0.1-0.1,0.4,0,0.5-0.1c0.1-0.1,0.3-0.2,0.4-0.2
					c0.1-0.1,0.2-0.3,0.4-0.3c0.1-0.1,0.3-0.1,0.5-0.2c0.1-0.1,0.2-0.2,0.4-0.3c0.1-0.1,0.3-0.1,0.5-0.2c0.1-0.1,0.2-0.3,0.4-0.4
					c0.1-0.1,0.3-0.1,0.4-0.2c0.1-0.1,0.3-0.2,0.4-0.3c0.1-0.1,0.2-0.2,0.4-0.3c0.1-0.1,0.3-0.2,0.4-0.3s0.3-0.1,0.5-0.2
					c0.1-0.1,0.2-0.2,0.3-0.3c0.1-0.1,0.3-0.2,0.4-0.3c0.1-0.1,0.2-0.3,0.3-0.4c0.1-0.1,0.2-0.3,0.3-0.4c0.1-0.1,0.3-0.2,0.4-0.3
					c0.1-0.1,0.2-0.3,0.3-0.4c0.1-0.1,0.3-0.1,0.5-0.2c0.1-0.1,0.1-0.3,0.3-0.4c0.1-0.1,0.2-0.2,0.3-0.4s0.3-0.2,0.4-0.3
					c0.1-0.1,0.2-0.1,0.4-0.1c0.1,0,0.2,0.1,0.3,0.1c0.1,0.1,0.3,0.1,0.3,0.2c0,0.2-0.1,0.2-0.1,0.5c0,0.2,0,0.2,0,0.5
					c0,0.2,0,0.2,0,0.5c0,0.2-0.1,0.2-0.1,0.5c0,0.2,0.1,0.2,0.1,0.5c0,0.2,0,0.2,0,0.5c0,0.2-0.1,0.2-0.1,0.5
					c0,0.2,0.1,0.2,0.1,0.5c0,0.2,0,0.2,0,0.5c0,0.2-0.1,0.2-0.1,0.5c0,0.2,0,0.2,0,0.5c0,0.2,0,0.2,0,0.5c0,0.2,0.1,0.2,0.1,0.5
					c0,0.2-0.1,0.2-0.1,0.5c0,0.2-0.1,0.2-0.1,0.5c0,0.2,0,0.2,0,0.5c0,0.2,0,0.2,0,0.5c0,0.2,0.1,0.2,0.1,0.5c0,0.2,0,0.2,0,0.5
					c0,0.2,0,0.2,0,0.5c0,0.2,0,0.2,0,0.5c0,0.2-0.1,0.2-0.1,0.5c0,0.2,0.1,0.2,0.1,0.5c0,0.2,0,0.2,0,0.5c0,0.2,0,0.2,0,0.5
					c0,0.2,0,0.2,0,0.5c0,0.2-0.1,0.2-0.1,0.5c0,0.2,0,0.2,0,0.5c0,0.2,0.1,0.2,0.1,0.5c0,0.2,0,0.2,0,0.5c0,0.2,0.1,0.2,0.1,0.5
					c0,0.2,0,0.2,0,0.5c0,0.2,0,0.2,0,0.5c0,0.2,0,0.2,0,0.5c0,0.2,0.1,0.2,0.1,0.5c0,0.2-0.2,0.2-0.2,0.5c0,0.2,0,0.2,0,0.5
					c0,0.2,0.2,0.3,0.3,0.4c0.1,0.1,0.1,0.3,0.3,0.4c0.1,0.1,0.3,0.1,0.5,0.1s0.2-0.1,0.5-0.1c0.2,0,0.2,0,0.5,0c0.2,0,0.2,0,0.5,0
					c0.2,0,0.2,0,0.5,0s0.2,0.1,0.5,0.1c0.2,0,0.3-0.1,0.5-0.1c0.2-0.1,0.3-0.1,0.4-0.3c0.1-0.1,0-0.3,0-0.5s0-0.2,0-0.5
					c0-0.2,0.1-0.2,0.1-0.5c0-0.2-0.1-0.2-0.1-0.5c0-0.2,0.2-0.2,0.2-0.5c0-0.2-0.1-0.2-0.1-0.5c0-0.2,0.2-0.2,0.2-0.5
					c0-0.2-0.1-0.2-0.1-0.5c0-0.2,0-0.2,0-0.5c0-0.2,0-0.2,0-0.5c0-0.2,0-0.2,0-0.5c0-0.2,0-0.2,0-0.5c0-0.2,0-0.2,0-0.5
					c0-0.2,0.1-0.2,0.1-0.5c0-0.2-0.1-0.2-0.1-0.5c0-0.2,0-0.2,0-0.5c0-0.2,0.1-0.2,0.1-0.5c0-0.2-0.1-0.2-0.1-0.5
					c0-0.2,0-0.2,0-0.5c0-0.2,0.1-0.2,0.1-0.5c0-0.2,0-0.2,0-0.5c0-0.2,0-0.2,0-0.5c0-0.2,0.1-0.2,0.1-0.5c0-0.2,0-0.2,0-0.5
					c0-0.2,0-0.2,0-0.5c0-0.2,0.1-0.2,0.1-0.5c0-0.2,0-0.2,0-0.5c0-0.2-0.1-0.2-0.1-0.5c0-0.2-0.1-0.2-0.1-0.5
					c0-0.2,0.1-0.2,0.1-0.5c0-0.2,0.1-0.2,0.1-0.5c0-0.2,0-0.2,0-0.5c0-0.2-0.1-0.2-0.1-0.5c0-0.2,0-0.2,0-0.5
					c0-0.2,0.1-0.2,0.1-0.5c0-0.2,0.1-0.2,0.1-0.5c0-0.2-0.1-0.2-0.1-0.5c0-0.2,0-0.2,0-0.5c0-0.2,0-0.2,0-0.5
					c0-0.2-0.1-0.2-0.1-0.5c0-0.2,0-0.2,0-0.5c0-0.2,0.1-0.2,0.1-0.5c0-0.2-0.2-0.2-0.2-0.5c0-0.2,0.1-0.2,0.1-0.5
					c0-0.2-0.1-0.2-0.1-0.5c0-0.2,0.1-0.2,0.1-0.5c0-0.2-0.1-0.2-0.1-0.5c0-0.2,0-0.2,0-0.5c0-0.2-0.1-0.2-0.1-0.5
					c0-0.2,0.2-0.2,0.2-0.5c0-0.2-0.1-0.2-0.1-0.5c0-0.2,0-0.2,0-0.5c0-0.2,0.1-0.2,0.1-0.5c0-0.2-0.2-0.2-0.2-0.5
					c0-0.2,0.1-0.2,0.1-0.5c0-0.2-0.1-0.2-0.1-0.5c0-0.2,0-0.2,0-0.5c0-0.2,0-0.2,0-0.5c0-0.2,0.1-0.2,0.1-0.5c0-0.2,0-0.2,0-0.5
					c0-0.2-0.1-0.2-0.1-0.5c0-0.2,0-0.2,0-0.5c0-0.2,0-0.2,0-0.5c0-0.2,0-0.2,0-0.5c0-0.2,0-0.2,0-0.5c0-0.2,0.1-0.2,0.1-0.5
					c0-0.2-0.1-0.2-0.1-0.5c0-0.2,0-0.2,0-0.5c0-0.2,0-0.2,0-0.5c0-0.2,0.1-0.2,0.1-0.5c0-0.2-0.1-0.2-0.1-0.5c0-0.2,0-0.2,0-0.5
					c0-0.2-0.1-0.2-0.1-0.5c0-0.2,0.1-0.2,0.1-0.5c0-0.2,0-0.2,0-0.5c0-0.2-0.1-0.2-0.1-0.5c0-0.2,0-0.2,0-0.5c0-0.2,0-0.2,0-0.5
					c0-0.2,0.1-0.2,0.1-0.5c0-0.2-0.1-0.2-0.1-0.5c0-0.2,0-0.2,0-0.5c0-0.2,0-0.2,0-0.5c0-0.2,0-0.2,0-0.5c0-0.2,0.1-0.2,0.1-0.5
					c0-0.2-0.1-0.2-0.1-0.5c0-0.2,0-0.2,0-0.5c0-0.2,0.1-0.2,0.1-0.5c0-0.2-0.1-0.2-0.1-0.5c0-0.2,0.1-0.2,0.1-0.5
					c0-0.2,0-0.2,0-0.5c0-0.2,0-0.2,0-0.5c0-0.2,0-0.2,0-0.5c0-0.2-0.1-0.2-0.1-0.5c0-0.2,0.1-0.2,0.1-0.5s-0.1-0.2-0.1-0.5
					c0-0.2,0.1-0.4,0-0.5c-0.8,0.7-0.9,0.5-1.1,0.5C-104.4,223.1-104.6,223.2-104.8,223.2z"/>
			</g>
			<g>
				<path fill="#0E0809" d="M-66.7,260.4c-0.1-0.1-0.2-0.2-0.3-0.2c-0.1-0.1-0.2-0.2-0.3-0.2c-0.2,0-0.3,0-0.5,0s-0.3-0.1-0.5-0.2
					c-0.2,0-0.3,0.1-0.5,0.1s-0.3-0.1-0.5-0.2c-0.2,0-0.3,0-0.5,0s-0.3-0.2-0.5-0.2s-0.3-0.1-0.5-0.1s-0.3,0-0.5-0.1
					c-0.2,0-0.3,0-0.5,0s-0.3-0.1-0.5-0.1s-0.3-0.2-0.5-0.2s-0.3-0.1-0.5-0.1s-0.3,0-0.5,0s-0.3-0.1-0.5-0.1s-0.3,0-0.5-0.1
					c-0.2,0-0.3-0.1-0.5-0.1s-0.3-0.2-0.4-0.2c-0.2,0-0.3-0.1-0.5-0.1s-0.3,0-0.5-0.1c-0.2,0-0.3-0.2-0.4-0.2
					c-0.2,0-0.3-0.1-0.5-0.1s-0.3-0.1-0.5-0.1c-0.2-0.1-0.3,0-0.5-0.1s-0.3-0.3-0.4-0.3c-0.2-0.1-0.3-0.1-0.5-0.2s-0.3-0.1-0.5-0.2
					s-0.4,0-0.5,0c-0.2-0.1-0.3-0.2-0.4-0.3c-0.2-0.1-0.3-0.1-0.5-0.1c-0.2-0.1-0.2-0.3-0.4-0.3c-0.2-0.1-0.3-0.1-0.4-0.2
					s-0.3,0-0.5-0.1c-0.1-0.1-0.3-0.1-0.5-0.2c-0.1-0.1-0.3-0.2-0.4-0.3c-0.1-0.1-0.3-0.1-0.5-0.1c-0.1-0.1-0.3-0.1-0.4-0.2
					s-0.3-0.2-0.4-0.2c-0.1-0.1-0.3-0.2-0.4-0.3s-0.3-0.1-0.5-0.1c-0.1-0.1-0.2-0.2-0.4-0.3c-0.1-0.1-0.3-0.1-0.4-0.2
					c-0.1-0.1-0.2-0.2-0.4-0.3c-0.1-0.1-0.2-0.2-0.4-0.3c0.4-0.3,0.2-0.3,0.1-0.4c-0.1-0.1-0.3-0.2-0.4-0.3
					c-0.1-0.1-0.3-0.1-0.5-0.2c-0.1-0.1-0.2-0.2-0.4-0.3c-0.1-0.1-0.3-0.1-0.4-0.2c-0.1-0.1-0.3-0.2-0.4-0.3
					c-0.1-0.1-0.3-0.2-0.4-0.3s-0.2-0.2-0.4-0.3c-0.1-0.1-0.3-0.2-0.4-0.3s-0.2-0.3-0.3-0.4c-0.1-0.1-0.3-0.1-0.4-0.2
					s-0.2-0.3-0.3-0.4c-0.1-0.1-0.3-0.2-0.4-0.3c-0.1-0.1-0.2-0.3-0.3-0.4c-0.1-0.1-0.2-0.3-0.3-0.4c-0.1-0.1-0.3-0.1-0.4-0.2
					c-0.1-0.1-0.2-0.2-0.3-0.4c-0.1-0.1-0.1-0.3-0.2-0.5c-0.1-0.1-0.2-0.2-0.3-0.4c-0.1-0.1-0.2-0.3-0.3-0.4
					c-0.1-0.1-0.3-0.2-0.4-0.3s-0.1-0.3-0.2-0.4c-0.1-0.1-0.1-0.3-0.2-0.4s-0.2-0.2-0.3-0.4c-0.1-0.1-0.2-0.3-0.2-0.4
					c-0.1-0.1-0.3-0.2-0.3-0.4c-0.1-0.1-0.2-0.3-0.2-0.4c-0.1-0.2,0-0.4-0.1-0.5c-0.1-0.2-0.1-0.3-0.2-0.4c-0.1-0.2-0.1-0.3-0.2-0.4
					c-0.1-0.2-0.1-0.3-0.1-0.5c-0.1-0.2-0.2-0.3-0.2-0.4c0,0,0,0,0-0.1c0-0.2,0.1-0.2,0.1-0.5c0-0.2-0.1-0.2-0.1-0.5
					c0-0.2,0.1-0.2,0.1-0.5c0-0.2,0-0.2,0-0.5c0-0.2-0.1-0.2-0.1-0.5c0-0.2,0-0.2,0-0.5c0-0.2,0-0.2,0-0.5c0-0.2,0.1-0.2,0.1-0.5
					s0-0.2,0-0.5c0-0.2,0-0.2,0-0.5c0-0.2,0-0.2,0-0.5c0-0.2-0.1-0.2-0.1-0.5c0-0.2,0-0.2,0-0.5c0-0.2,0.1-0.2,0.1-0.5
					c0-0.2,0-0.2,0-0.5c0-0.2-0.2-0.2-0.2-0.5c0-0.2,0.1-0.2,0.1-0.5c0-0.2,0.1-0.4,0.3-0.5c0.2,0,0.4,0.1,0.5,0.2
					c0.1,0.1,0.3,0.1,0.4,0.3c0.1,0.1,0.1,0.3,0.2,0.4c0.1,0.1,0.3,0.1,0.5,0.2c0.1,0.1,0.2,0.2,0.3,0.3c0.1,0.1,0.3,0.2,0.4,0.3
					c0.1,0.1,0.1,0.3,0.2,0.5c0.1,0.1,0.3,0.1,0.4,0.2c0.1,0.1,0.2,0.2,0.3,0.3c0.1,0.1,0.3,0.2,0.4,0.3s0.2,0.2,0.4,0.3
					c0.1,0.1,0.3,0.1,0.5,0.2c0.1,0.1,0.2,0.3,0.3,0.4c0.1,0.1,0.3,0.1,0.5,0.2c0.1,0.1,0.2,0.3,0.3,0.4c0.1,0.1,0.3,0.1,0.4,0.2
					s0.2,0.2,0.4,0.3c0.1,0.1,0.3,0.2,0.4,0.3c0.1,0.1,0.3,0.1,0.5,0.2c0.1,0.1,0.3,0.2,0.4,0.3c0.1,0.1,0.3,0.2,0.4,0.3
					s0.3,0.2,0.4,0.2c0.1,0.1,0.3,0.1,0.5,0.2c0.1,0.1,0.2,0.3,0.4,0.3c0.1,0.1,0.3,0.2,0.4,0.2c0.1,0.1,0.3,0.1,0.4,0.2
					s0.3,0.2,0.4,0.2c0.1,0.1,0.3,0.1,0.5,0.2c0.1,0.1,0.2,0.2,0.4,0.3c0.1,0.1,0.3,0.1,0.5,0.1c0.1,0.1,0.2,0.2,0.4,0.3
					c0.1,0.1,0.3,0.1,0.4,0.2c0.1,0.1,0.3,0.1,0.4,0.2c0.1,0.1,0.4,0,0.5,0.1s0.2,0.3,0.4,0.3c0.1,0.1,0.3,0.2,0.4,0.2
					c0.1,0.1,0.3,0.1,0.4,0.2s0.3,0.1,0.5,0.2s0.3,0,0.5,0.1c0.1,0.1,0.3,0.2,0.4,0.3c0.2,0.1,0.3,0.1,0.5,0.2
					c0.2,0.1,0.3,0.1,0.5,0.2c0.2,0.1,0.3,0,0.5,0.1s0.3,0.1,0.5,0.1c0.2,0.1,0.3,0.1,0.5,0.2c0.2,0.1,0.3,0.2,0.4,0.2
					c0.2,0.1,0.3,0,0.5,0.1s0.3,0.2,0.4,0.2c0.2,0.1,0.3,0.1,0.5,0.2s0.3,0.1,0.5,0.1c0.2,0.1,0.3,0.1,0.5,0.1
					c0.2,0.1,0.3,0.1,0.5,0.1s0.4-0.1,0.5-0.2c0.1-0.1,0.1-0.3,0.2-0.5c0.1-0.2,0.1-0.2,0.2-0.4c0.1-0.2,0.2-0.2,0.3-0.4
					c0.1-0.2,0-0.2,0.1-0.4s0.2-0.2,0.2-0.4c0.1-0.2,0.1-0.2,0.2-0.4c0.1-0.2,0-0.5-0.1-0.7c-0.1-0.1-0.2-0.2-0.3-0.3
					c-0.1-0.1-0.2-0.2-0.3-0.2c-0.2-0.1-0.3-0.1-0.5-0.1c-0.2-0.1-0.3-0.1-0.5-0.1c-0.2-0.1-0.3-0.1-0.5-0.2s-0.3-0.1-0.5-0.2
					s-0.3-0.1-0.5-0.1c-0.2-0.1-0.3-0.1-0.5-0.2c-0.2-0.1-0.3-0.2-0.4-0.2c-0.2-0.1-0.3-0.1-0.5-0.1c-0.2-0.1-0.3-0.1-0.5-0.1
					c-0.2-0.1-0.3-0.1-0.5-0.2c-0.2-0.1-0.3-0.2-0.4-0.3c-0.2-0.1-0.3-0.2-0.4-0.3c-0.2-0.1-0.3-0.1-0.4-0.2
					c-0.2-0.1-0.3-0.1-0.5-0.2c-0.2-0.1-0.3-0.1-0.5-0.2c-0.2-0.1-0.3-0.1-0.5-0.1c-0.1-0.1-0.3-0.1-0.4-0.2s-0.3-0.1-0.4-0.2
					s-0.3-0.2-0.4-0.3c-0.1-0.1-0.3-0.1-0.5-0.2c-0.1-0.1-0.3-0.2-0.4-0.3s-0.3-0.1-0.5-0.2c-0.1-0.1-0.2-0.2-0.4-0.3
					c-0.1-0.1-0.3-0.2-0.4-0.2c-0.1-0.1-0.3-0.1-0.4-0.2c-0.1-0.1-0.3-0.2-0.4-0.3c-0.1-0.1-0.3-0.1-0.4-0.2c-0.1-0.1-0.4,0-0.5-0.1
					s-0.3-0.2-0.4-0.3c-0.1-0.1-0.3-0.2-0.4-0.3c0,0.4-0.2,0.4-0.3,0.3c-0.1-0.1-0.2-0.3-0.4-0.3c-0.1-0.1-0.3-0.1-0.5-0.2
					c-0.1-0.1-0.2-0.3-0.3-0.4c-0.1-0.1-0.3-0.1-0.4-0.2s-0.2-0.3-0.3-0.4c-0.1-0.1-0.2-0.2-0.4-0.3c-0.1-0.1-0.3-0.1-0.4-0.2
					c-0.1-0.1-0.3-0.2-0.4-0.3c-0.1-0.1-0.2-0.2-0.4-0.3c-0.1-0.1-0.2-0.3-0.3-0.4c-0.1-0.1-0.3-0.2-0.4-0.3
					c-0.1-0.1-0.3-0.2-0.4-0.3c-0.1-0.1-0.2-0.3-0.3-0.4c-0.1-0.1-0.3-0.1-0.5-0.2c-0.1-0.1-0.1-0.3-0.2-0.4
					c-0.1-0.1-0.3-0.2-0.4-0.3c-0.1-0.1-0.3-0.2-0.4-0.3s-0.1-0.3-0.2-0.4c-0.1-0.1-0.3-0.2-0.4-0.3c-0.1-0.1-0.2-0.3-0.3-0.4
					c-0.1-0.1-0.2-0.3-0.3-0.4c-0.1-0.1-0.2-0.3-0.3-0.4c-0.1-0.1-0.2-0.3-0.3-0.4c-0.1-0.1-0.2-0.2-0.3-0.4
					c-0.1-0.1-0.1-0.3-0.2-0.4s-0.2-0.3-0.2-0.4c-0.1-0.2-0.1-0.3-0.2-0.4c-0.1-0.2-0.1-0.3-0.2-0.4c-0.1-0.2-0.2-0.3-0.2-0.4
					c-0.1-0.2-0.1-0.3-0.1-0.5c-0.1-0.2,0-0.4,0-0.5c0-0.1-0.2-0.3-0.3-0.4c-0.1-0.1-0.2-0.3-0.3-0.3c-0.1-0.1-0.3,0-0.5,0
					c-0.3,0-0.3,0.1-0.5,0.1c-0.3,0-0.3-0.1-0.5-0.1c-0.3,0-0.3-0.1-0.5-0.1c-0.3,0-0.3,0.1-0.5,0.1c-0.3,0-0.3,0-0.5,0
					s-0.3,0-0.5,0.1s-0.2,0.2-0.3,0.4c-0.1,0.1-0.2,0.3-0.2,0.4c0,0.2,0.1,0.2,0.1,0.5c0,0.2,0,0.2,0,0.5c0,0.2,0.1,0.2,0.1,0.5
					c0,0.2,0,0.2,0,0.5c0,0.2-0.1,0.2-0.1,0.5c0,0.2,0,0.2,0,0.5c0,0.2,0.1,0.2,0.1,0.5c0,0.2-0.1,0.2-0.1,0.5c0,0.2,0,0.2,0,0.5
					c0,0.2-0.1,0.2-0.1,0.5c0,0.2,0,0.2,0,0.5c0,0.2,0.1,0.2,0.1,0.5c0,0.2,0,0.2,0,0.5c0,0.2,0,0.2,0,0.5c0,0.2,0.1,0.2,0.1,0.5
					c0,0.2,0,0.2,0,0.5c0,0.2-0.1,0.2-0.1,0.5c0,0.2,0.1,0.2,0.1,0.5c0,0.2-0.1,0.2-0.1,0.5c0,0.2,0,0.2,0,0.5c0,0.2,0,0.2,0,0.5
					c0,0.2,0,0.2,0,0.5c0,0.2,0,0.2,0,0.5c0,0.2,0,0.2,0,0.5c0,0.2,0,0.2,0,0.5c0,0.2-0.1,0.2-0.1,0.5c0,0.2,0,0.2,0,0.5
					c0,0.2,0.1,0.2,0.1,0.5c0,0.2-0.1,0.2-0.1,0.5c0,0.2,0,0.2,0,0.5c0,0.2,0.1,0.2,0.1,0.5c0,0.2-0.1,0.2-0.1,0.5
					c0,0.2-0.1,0.2-0.1,0.5c0,0.2,0.1,0.2,0.1,0.5c0,0.2-0.1,0.2-0.1,0.5c0,0.2,0.1,0.2,0.1,0.5c0,0.2,0,0.2,0,0.5
					c0,0.2,0,0.2,0,0.5c0,0.2,0,0.2,0,0.5c0,0.2,0,0.2,0,0.5c0,0.2,0,0.2,0,0.5c0,0.2-0.1,0.2-0.1,0.5c0,0.2,0.1,0.2,0.1,0.5
					c0,0.2,0,0.2,0,0.5c0,0.2,0,0.2,0,0.5c0,0.2,0,0.2,0,0.5c0,0.2,0,0.2,0,0.5c0,0.2,0.1,0.2,0.1,0.5c0,0.2,0,0.2,0,0.5
					c0,0.2-0.1,0.2-0.1,0.5c0,0.2,0.1,0.2,0.1,0.5c0,0.2,0.1,0.2,0.1,0.5c0,0.2-0.1,0.2-0.1,0.5c0,0.2,0,0.2,0,0.5
					c0,0.2,0,0.2,0,0.5c0,0.2,0,0.2,0,0.5c0,0.2,0,0.2,0,0.5c0,0.2,0,0.2,0,0.5c0,0.2,0.1,0.2,0.1,0.5c0,0.2-0.1,0.2-0.1,0.5
					c0,0.2,0,0.2,0,0.5c0,0.2,0.1,0.2,0.1,0.5c0,0.2-0.1,0.2-0.1,0.5c0,0.2-0.1,0.2-0.1,0.5c0,0.2,0,0.2,0,0.5
					c0,0.2,0.1,0.2,0.1,0.5c0,0.2,0,0.2,0,0.5c0,0.2-0.1,0.2-0.1,0.5c0,0.2,0,0.2,0,0.5c0,0.2,0,0.2,0,0.5c0,0.2,0.1,0.2,0.1,0.5
					c0,0.2-0.1,0.2-0.1,0.5c0,0.2,0.1,0.2,0.1,0.5c0,0.2,0.1,0.2,0.1,0.5c0,0.2,0,0.2,0,0.5c0,0.2-0.1,0.2-0.1,0.5
					c0,0.2,0.1,0.2,0.1,0.5c0,0.2,0,0.2,0,0.5c0,0.2,0,0.2,0,0.5c0,0.2,0,0.2,0,0.5c0,0.2,0.1,0.2,0.1,0.5c0,0.2-0.1,0.2-0.1,0.5
					c0,0.2,0.1,0.2,0.1,0.5c0,0.2,0,0.2,0,0.5c0,0.2-0.1,0.2-0.1,0.5c0,0.2,0,0.2,0,0.5c0,0.2,0,0.2,0,0.5c0,0.2,0.1,0.2,0.1,0.5
					c0,0.2-0.1,0.2-0.1,0.5c0,0.2,0,0.2,0,0.5c0,0.2,0,0.2,0,0.5c0,0.2,0.1,0.2,0.1,0.5c0,0.2-0.1,0.2-0.1,0.5c0,0.3,0,0.2,0,0.5
					c0,0.2,0.1,0.3,0.2,0.5c0.1,0.1,0.2,0.3,0.4,0.4c0.1,0.1,0.3,0.1,0.5,0.1s0.2-0.2,0.5-0.2c0.2,0,0.2,0.1,0.5,0.1
					c0.2,0,0.2-0.1,0.5-0.1c0.2,0,0.2,0.1,0.5,0.1s0.2,0.1,0.5,0.1c0.2,0,0.4-0.1,0.5-0.2c0.2-0.1,0.2-0.3,0.3-0.4
					c0.1-0.1,0.2-0.3,0.2-0.4c0-0.2-0.1-0.2-0.1-0.5c0-0.2,0.1-0.2,0.1-0.5c0-0.2,0-0.2,0-0.5c0-0.2-0.1-0.2-0.1-0.5
					c0-0.2,0.1-0.2,0.1-0.5c0-0.2-0.1-0.2-0.1-0.5c0-0.2,0.1-0.2,0.1-0.5c0-0.2-0.1-0.2-0.1-0.5c0-0.2,0.1-0.2,0.1-0.5
					c0-0.2,0-0.2,0-0.5c0-0.2-0.1-0.2-0.1-0.5c0-0.2,0-0.2,0-0.5c0-0.2,0.1-0.2,0.1-0.5c0-0.2-0.1-0.2-0.1-0.5
					c0-0.2,0.1-0.2,0.1-0.5c0-0.2-0.1-0.2-0.1-0.5c0-0.2-0.1-0.2-0.1-0.5c0-0.2,0-0.2,0-0.5c0-0.2-0.1-0.2-0.1-0.5
					c0-0.2,0.2-0.2,0.2-0.5c0-0.2-0.1-0.2-0.1-0.5c0-0.2,0-0.2,0-0.5c0-0.2,0.1-0.2,0.1-0.5c0-0.2,0-0.2,0-0.5c0-0.2,0-0.2,0-0.5
					c0-0.2-0.2-0.2-0.2-0.5c0-0.2,0.1-0.2,0.1-0.5c0-0.2,0-0.2,0-0.5c0-0.2,0-0.2,0-0.5c0-0.2,0.1-0.2,0.1-0.5
					c0-0.2-0.1-0.2-0.1-0.5c0-0.2,0-0.2,0-0.5c0-0.2,0.1-0.2,0.1-0.5c0-0.2-0.1-0.2-0.1-0.5c0-0.2,0-0.2,0-0.5
					c0-0.2,0.1-0.2,0.1-0.5c0-0.2,0-0.2,0-0.5c0-0.1,0-0.2,0.1-0.3s0.2-0.2,0.3-0.2c0.2,0,0.3,0.1,0.4,0.2s0.2,0.3,0.3,0.4
					c0.1,0.1,0.3,0.2,0.4,0.3c0.1,0.1,0.2,0.2,0.3,0.3c0.1,0.1,0.3,0.1,0.4,0.2c0.1,0.1,0.2,0.2,0.4,0.3c0.1,0.1,0.2,0.2,0.3,0.4
					c0.1,0.1,0.2,0.2,0.3,0.3c0.1,0.1,0.2,0.3,0.3,0.4c0.1,0.1,0.3,0.1,0.5,0.2c0.1,0.1,0.2,0.2,0.4,0.3c0.1,0.1,0.3,0.2,0.4,0.3
					c0.1,0.1,0.3,0.2,0.4,0.3s0.2,0.3,0.3,0.4c0.1,0.1,0.3,0.2,0.4,0.3s0.3,0.1,0.4,0.2c0.1,0.1,0.3,0.2,0.4,0.3s0.3,0.1,0.4,0.2
					c0.1,0.1,0.3,0.2,0.4,0.3s0.3,0.2,0.4,0.2c0.1,0.1,0.3,0.2,0.4,0.2c0.1,0.1,0.3,0.1,0.5,0.2c0.1,0.1,0.2,0.3,0.3,0.4
					c0.1,0.1,0.3,0.1,0.4,0.2s0.3,0,0.5,0.1c0.1,0.1,0.2,0.2,0.4,0.3c0.1,0.1,0.3,0.2,0.4,0.2c0.1,0.1,0.3,0,0.5,0.1
					c0.1,0.1,0.3,0.2,0.4,0.2c0.1,0.1,0.3,0.1,0.5,0.2c0.1,0.1,0.3,0.1,0.5,0.2c0.1,0.1,0.3,0.2,0.4,0.2c0.1,0.1,0.3,0.1,0.5,0.2
					c0.2,0.1,0.3,0.2,0.4,0.3c0.2,0.1,0.4,0,0.5,0c0.2,0.1,0.3,0.2,0.4,0.2c0.2,0.1,0.3,0.2,0.4,0.3c0.2,0.1,0.4,0,0.5,0
					c0.2,0.1,0.3,0.3,0.4,0.3c0.2,0.1,0.4,0,0.5,0c0.2,0.1,0.3,0.2,0.4,0.3c0.2,0.1,0.4,0,0.5,0c0.2,0,0.3,0.1,0.5,0.1
					s0.3,0.1,0.5,0.1s0.3,0.1,0.5,0.2c0.2,0,0.3,0.1,0.5,0.1s0.3,0.1,0.5,0.2c0.2,0,0.3,0.2,0.4,0.2c0.2,0,0.3,0,0.5,0
					s0.3,0.1,0.5,0.1s0.3,0.2,0.4,0.2c0.2,0,0.3,0,0.5,0s0.3,0.1,0.5,0.1s0.3,0.1,0.5,0.2c0.2,0,0.3,0,0.5,0.1c0.2,0,0.3,0,0.5,0.1
					c0.2,0,0.3,0.1,0.5,0.2c0.2,0,0.3,0,0.5,0.1c0.2,0,0.3,0.1,0.5,0.1s0.3,0.2,0.5,0.2s0.3,0.1,0.5,0.1s0.3,0,0.5,0s0.3,0,0.5,0
					s0.3,0.1,0.5,0.1s0.3,0.1,0.5,0.1c0.1,0,0.1,0,0.2,0c0.2,0,0.3-0.1,0.4-0.2c0.1-0.1,0.3-0.1,0.3-0.3c0.1-0.1,0.2-0.2,0.2-0.4
					s0.1-0.2,0.1-0.4c0-0.2,0-0.2,0-0.4c0-0.2,0.1-0.2,0.1-0.4c0-0.2,0.1-0.2,0.1-0.4c0-0.2,0-0.2,0-0.4
					C-66.4,260.8-66.5,260.6-66.7,260.4z"/>
			</g>
			<g>
				<path fill="#0E0809" d="M-98.2,214.7c0.1,0.1,0.2,0.3,0.3,0.4c0.1,0.1,0.1,0.3,0.2,0.5c0.1,0.1,0.3,0.2,0.4,0.3
					c0.1,0.1,0.1,0.3,0.2,0.4c0.1,0.1,0.3,0.2,0.4,0.3c0.1,0.1,0.2,0.2,0.3,0.4c0.1,0.1,0.1,0.3,0.2,0.5c0.1,0.1,0.2,0.2,0.3,0.4
					c0.1,0.1,0.3,0.2,0.4,0.3c0.1,0.1,0.2,0.3,0.3,0.4c0.1,0.1,0.2,0.3,0.3,0.4c0.1,0.1,0.2,0.2,0.3,0.3c0.1,0.1,0.2,0.2,0.3,0.4
					c0.1,0.1,0.1,0.3,0.3,0.4c0.1,0.1,0.2,0.2,0.3,0.4c0.1,0.1,0.2,0.2,0.4,0.3c0.1,0.1,0.2,0.3,0.3,0.4c0.1,0.1,0.3,0.1,0.4,0.3
					c0.1,0.1,0.2,0.3,0.3,0.4c0.1,0.1,0.2,0.2,0.4,0.3c0.1,0.1,0.2,0.3,0.3,0.4c0.1,0.1,0.3,0.1,0.5,0.2c0.1,0.1,0.2,0.2,0.3,0.3
					c0.1,0.1,0.1,0.3,0.3,0.4c0.1,0.1,0.3,0.1,0.4,0.2s0.2,0.3,0.3,0.4c0.1,0.1,0.3,0.1,0.5,0.2c0.1,0.1,0.2,0.3,0.3,0.4
					c0.1,0.1,0.3,0.1,0.4,0.2c0.1,0.1,0.3,0.2,0.4,0.3c0.1,0.1,0.2,0.3,0.3,0.4c0.1,0.1,0.3,0.1,0.5,0.2c0.1,0.1,0.2,0.2,0.4,0.3
					c0.1,0.1,0.3,0.1,0.5,0.2c0.1,0.1,0.3,0.2,0.4,0.3c0.1,0.1,0.3,0.1,0.5,0.2c0.1,0.1,0.3,0.1,0.4,0.2c0.1,0.1,0.2,0.2,0.4,0.3
					c0.1,0.1,0.3,0.1,0.5,0.1s0.3,0.1,0.5,0.1s0.3-0.1,0.5-0.2c0.2,0,0.4,0,0.5-0.1c0.2-0.1,0.3-0.2,0.4-0.3
					c0.1-0.1,0.3-0.2,0.4-0.3c0.1-0.1,0.2-0.3,0.2-0.5c0-0.1,0-0.1,0-0.2c0.1-0.2,0-0.3,0.1-0.5c0-0.2,0-0.3,0-0.5
					c0-0.2,0-0.3-0.1-0.5c-0.1-0.1-0.2-0.3-0.3-0.4c-0.1-0.1-0.3-0.2-0.4-0.3c-0.1-0.1-0.3-0.2-0.4-0.2c-0.1-0.1-0.3-0.1-0.5-0.2
					c-0.1-0.1-0.3-0.1-0.4-0.2c-0.1-0.1-0.2-0.2-0.4-0.3c-0.1-0.1-0.3-0.2-0.4-0.3s-0.3-0.1-0.4-0.2s-0.2-0.2-0.4-0.3
					c-0.1-0.1-0.3-0.2-0.4-0.3c-0.1-0.1-0.3-0.2-0.4-0.3c-0.1-0.1-0.3-0.2-0.4-0.3c-0.4,0.1-0.4-0.1-0.5-0.2
					c-0.1-0.1-0.2-0.2-0.4-0.3c-0.1-0.1-0.2-0.2-0.4-0.3c-0.1-0.1-0.3-0.1-0.4-0.2c-0.1-0.1-0.2-0.3-0.3-0.4
					c-0.1-0.1-0.3-0.2-0.4-0.3c-0.1-0.1-0.1-0.3-0.2-0.4s-0.2-0.2-0.3-0.4c-0.1-0.1-0.3-0.2-0.4-0.3c-0.1-0.1-0.2-0.2-0.3-0.3
					c-0.1-0.1-0.2-0.3-0.3-0.4c-0.1-0.1-0.3-0.2-0.4-0.3c-0.1-0.1-0.2-0.2-0.3-0.4c-0.1-0.1-0.2-0.3-0.3-0.4
					c-0.1-0.1-0.2-0.3-0.3-0.4c-0.1-0.1-0.3-0.2-0.4-0.3c-0.1-0.1-0.2-0.3-0.3-0.4c-0.1-0.1-0.2-0.2-0.3-0.4
					c-0.1-0.1-0.2-0.3-0.3-0.4c-0.1-0.1-0.2-0.3-0.3-0.4c-0.1-0.1-0.2-0.2-0.3-0.4c-0.1-0.1-0.2-0.3-0.3-0.4
					c-0.1-0.1-0.3-0.2-0.3-0.4c-0.1-0.1-0.1-0.3-0.2-0.4c-0.1-0.1-0.2-0.2-0.3-0.4c-0.1-0.1-0.2-0.3-0.3-0.4
					c-0.1-0.1-0.2-0.2-0.3-0.4c-0.1-0.1-0.2-0.3-0.3-0.4c-0.1-0.1-0.2-0.3-0.3-0.4c0-0.2,0-0.4-0.1-0.5c-0.1-0.1-0.3-0.2-0.3-0.4
					c-0.1-0.1-0.1-0.3-0.2-0.5c-0.1-0.1-0.2-0.2-0.3-0.4c-0.1-0.1-0.1-0.3-0.2-0.5c-0.1-0.1-0.1-0.3-0.2-0.4s-0.3-0.2-0.4-0.3
					c-0.1-0.1-0.2-0.3-0.2-0.4c-0.1-0.1-0.1-0.3-0.1-0.5c-0.1-0.1-0.2-0.3-0.3-0.4c-0.1-0.1-0.1-0.3-0.2-0.4s-0.2-0.2-0.3-0.4
					c-0.2-0.1-0.2-0.3-0.3-0.5c-0.1-0.1-0.1-0.3-0.2-0.4c-0.1-0.1-0.2-0.3-0.3-0.4c-0.1-0.1-0.1-0.3-0.2-0.4
					c-0.1-0.1-0.2-0.2-0.3-0.4c-0.1-0.1-0.2-0.3-0.2-0.4c-0.1-0.1,0-0.3-0.1-0.5c-0.1-0.1,0-0.1-0.1-0.3c-0.1-0.1-0.2-0.3-0.3-0.4
					c-0.1-0.1-0.2-0.2-0.3-0.3c-0.1-0.1-0.3-0.1-0.5-0.2c-0.2-0.1-0.3-0.1-0.5-0.1s-0.3-0.1-0.5-0.1s-0.3,0.1-0.5,0.1
					s-0.3,0-0.5,0.1c-0.1,0.1-0.3,0.1-0.4,0.2s-0.2,0.3-0.3,0.4c-0.1,0.1-0.2,0.2-0.3,0.4c-0.1,0.1-0.1,0.1-0.1,0.3
					c-0.1,0.1-0.2,0.2-0.3,0.4c0.1,0,0,0.2,0,0.4c-0.1,0.1-0.2,0.3-0.3,0.4c-0.1,0.1-0.2,0.3-0.2,0.4c-0.1,0.1-0.1,0.3-0.1,0.5
					c-0.1,0.1-0.1,0.3-0.2,0.4c-0.1,0.1-0.3,0.2-0.3,0.4c-0.1,0.1-0.2,0.3-0.2,0.4c-0.1,0.1,0,0.4-0.1,0.5c-0.1,0.1-0.2,0.2-0.3,0.4
					c-0.3,0.1-0.3,0.2-0.4,0.4c-0.1,0.1-0.2,0.2-0.3,0.4c-0.1,0.1-0.1,0.3-0.2,0.5c-0.1,0.1-0.3,0.1-0.4,0.3
					c-0.1,0.1-0.1,0.3-0.1,0.5c-0.1,0.1-0.2,0.3-0.3,0.4c-0.1,0.1-0.2,0.3-0.2,0.4c-0.1,0.1-0.3,0.2-0.4,0.3s-0.1,0.3-0.2,0.4
					c-0.1,0.1-0.2,0.2-0.3,0.4c-0.1,0.1-0.2,0.3-0.3,0.4c-0.1,0.1-0.2,0.2-0.3,0.4c-0.1,0.1-0.1,0.3-0.2,0.5
					c-0.1,0.1-0.3,0.2-0.3,0.3c-0.1,0.1-0.1,0.3-0.2,0.5c-0.1,0.1-0.3,0.2-0.4,0.3c-0.1,0.1-0.2,0.3-0.3,0.4
					c-0.1,0.1-0.2,0.2-0.3,0.4c-0.1,0.1-0.2,0.2-0.3,0.4c-0.1,0.1-0.1,0.3-0.2,0.4c-0.1,0.1-0.2,0.2-0.3,0.4
					c-0.1,0.1-0.2,0.2-0.3,0.4c-0.1,0.1-0.2,0.3-0.3,0.4c-0.1,0.1-0.1,0.3-0.2,0.4c-0.1,0.1-0.3,0.2-0.4,0.3
					c-0.1,0.1-0.2,0.2-0.3,0.4c-0.1,0.1-0.2,0.3-0.3,0.4c-0.1,0.1-0.2,0.2-0.3,0.4c-0.1,0.1-0.2,0.3-0.3,0.4s-0.3,0.2-0.4,0.3
					s-0.2,0.3-0.3,0.4c-0.1,0.1-0.3,0.2-0.4,0.3c-0.1,0.1-0.2,0.2-0.3,0.4c-0.1,0.1-0.2,0.2-0.4,0.3c-0.2,0-0.2,0.2-0.3,0.3
					c-0.1,0.1-0.3,0.1-0.4,0.2c-0.1,0.1-0.3,0.2-0.4,0.3c-0.1,0.1-0.3,0.2-0.4,0.3c-0.1,0.1-0.2,0.2-0.4,0.3
					c-0.1,0.1-0.2,0.3-0.3,0.4c-0.1,0.1-0.3,0.1-0.4,0.2c-0.1,0.1-0.3,0.2-0.4,0.3c-0.1,0.1-0.3,0.2-0.4,0.3
					c-0.1,0.1-0.2,0.2-0.4,0.3c-0.1,0.1-0.3,0.2-0.4,0.3c-0.1,0.1-0.3,0.1-0.4,0.2c-0.1,0.1-0.3,0.1-0.5,0.2
					c-0.1,0.1-0.2,0.2-0.4,0.3c-0.1,0.1-0.3,0.2-0.4,0.3c-0.1,0.1-0.2,0.2-0.3,0.4c-0.1,0.1-0.1,0.3-0.2,0.4c0,0.2,0,0.3,0,0.5
					c0,0.2,0,0.3,0.1,0.5c0.1,0.3,0,0.3,0.1,0.6s0.2,0.2,0.3,0.5c0.1,0.2,0.1,0.3,0.2,0.4c0.1,0.1,0.1,0.3,0.3,0.4
					c0.1,0.1,0.3,0.1,0.5,0.1c0.1,0,0.2,0,0.4,0c0.2-0.1,0.3-0.1,0.5-0.2c0.1-0.1,0.3-0.2,0.4-0.2c0.1-0.1,0.3-0.2,0.4-0.2
					c0.1-0.1,0.3-0.1,0.5-0.2c0.1-0.1,0.3-0.2,0.4-0.2c0.1-0.1,0.3-0.2,0.4-0.2c0.1-0.1,0.3-0.1,0.4-0.2c0.1-0.1,0.3-0.1,0.4-0.2
					c0.1-0.1,0.3-0.2,0.4-0.3c0.1-0.1,0.3-0.2,0.4-0.3c0.1-0.1,0.3-0.1,0.4-0.2c0.1-0.1,0.2-0.2,0.4-0.3c0.1-0.1,0.2-0.2,0.4-0.3
					c0.1-0.1,0.2-0.2,0.4-0.3c0.1-0.1,0.3-0.1,0.4-0.2c0.1-0.1,0.3-0.2,0.4-0.3c0.1-0.1,0.3-0.2,0.4-0.3c0.1-0.1,0.2-0.2,0.3-0.3
					c0.1-0.1,0.2-0.2,0.3-0.4c0.1-0.1,0.2-0.3,0.3-0.4c0.1-0.1,0.2-0.2,0.3-0.3c0.1-0.1,0.2-0.2,0.3-0.3c0.1-0.1,0.3-0.2,0.4-0.3
					s0.2-0.3,0.3-0.4c0.1-0.1,0.2-0.2,0.4-0.3c0.1-0.1,0.2-0.3,0.3-0.4c0.1-0.1,0.3-0.2,0.4-0.3c0.1-0.1,0.2-0.2,0.3-0.4
					c0.1-0.1,0.2-0.3,0.3-0.4c0.1-0.1,0.2-0.2,0.3-0.4c0.1-0.1,0.2-0.3,0.3-0.4c0.1-0.1,0.1-0.3,0.2-0.5c0.1-0.1,0.2-0.2,0.3-0.4
					c0.1-0.1,0.2-0.2,0.3-0.4c0.1-0.1,0.2-0.3,0.3-0.4c0.1-0.1,0.3-0.2,0.4-0.3c0.1-0.1,0.1-0.3,0.2-0.5c0.1-0.1,0.3-0.2,0.4-0.3
					c0.1-0.1,0.1-0.3,0.2-0.4s0.2-0.2,0.3-0.4c0.1-0.1,0.2-0.2,0.3-0.4c0.1-0.1,0.1-0.3,0.2-0.4c0.1-0.1,0.1-0.3,0.2-0.4
					s0.2-0.3,0.3-0.4c0.1-0.1,0.3-0.2,0.4-0.3c0.1-0.1,0.1-0.3,0.2-0.4c0.1-0.1,0.2-0.3,0.2-0.4c0.1-0.1,0.2-0.2,0.3-0.4
					c0.1-0.1,0.1-0.3,0.1-0.5c0.1-0.1,0.3-0.2,0.3-0.3c0.1-0.1,0.1-0.3,0.2-0.4s0.1-0.3,0.2-0.4c0.1-0.2,0.3-0.2,0.4-0.3
					c0.1-0.1,0.3-0.3,0.5-0.3c0.2-0.1,0.4-0.1,0.6-0.1s0.4,0,0.6,0.1s0.3,0.2,0.5,0.3c0.1,0.1,0.3,0.3,0.4,0.4
					c0.1,0.1,0.2,0.2,0.3,0.4c0.1,0.1,0.1,0.3,0.2,0.4s0.2,0.3,0.3,0.4c0.1,0.1,0.2,0.3,0.2,0.4c0.1,0.1,0.2,0.3,0.3,0.4
					c0.1,0.1,0.2,0.2,0.3,0.4c0.1,0.1,0.2,0.3,0.2,0.4c0.1,0.1,0.1,0.3,0.2,0.4c0.1,0.1,0.2,0.2,0.3,0.4c0.1,0.1,0.1,0.3,0.2,0.4
					C-98.5,214.5-98.3,214.6-98.2,214.7z"/>
			</g>
		</g>
	</g>
	<g>
		<path fill="none" d="M-52.4,237.8c-1.6-24.7-21.5-44.8-46.2-46.7c-29.5-2.2-54.1,21.1-54.1,50c0,8.3,2,16.1,5.6,23h89.2
			C-53.8,256.4-51.8,247.3-52.4,237.8z"/>
		<g>
			<path fill="#0E0809" d="M-49.1,236.4c-0.1-0.9,0-1.7-0.1-2.6c-0.1-0.9-0.2-1.7-0.4-2.6c-0.2-0.9-0.4-1.7-0.6-2.5
				s-0.5-1.7-0.7-2.5s-0.3-1.7-0.6-2.5c-0.3-0.8-0.7-1.6-1-2.4s-0.8-1.5-1.2-2.3c-0.4-0.8-0.7-1.6-1.1-2.3c-0.4-0.8-0.8-1.5-1.3-2.3
				c-0.4-0.8-0.8-1.5-1.3-2.2s-1-1.4-1.5-2.1c-0.5-0.7-1-1.4-1.5-2.1s-1.2-1.3-1.8-1.9c-0.6-0.7-0.9-1.5-1.5-2.1s-1.3-1.2-1.9-1.8
				c-0.6-0.6-1.3-1.1-2-1.7s-1.4-1-2.1-1.5s-1.4-1.1-2.1-1.6s-1.3-1.2-2-1.6c-0.7-0.5-1.6-0.7-2.3-1.2c-0.8-0.4-1.4-1-2.2-1.4
				c-0.8-0.4-1.6-0.7-2.4-1c-0.8-0.4-1.6-0.7-2.4-1s-1.6-0.6-2.4-0.9s-1.7-0.3-2.5-0.6c-0.8-0.2-1.6-0.6-2.5-0.8
				c-0.8-0.2-1.7-0.3-2.6-0.4s-1.7-0.3-2.6-0.4c-0.9-0.1-1.7-0.1-2.6-0.1c-0.9-0.1-1.7-0.1-2.6-0.2c-0.9,0-1.7-0.2-2.6-0.2
				s-1.7,0.1-2.6,0.2c-0.9,0.1-1.7,0.1-2.6,0.2s-1.7,0.2-2.6,0.4c-0.9,0.1-1.7,0.4-2.5,0.6c-0.9,0.2-1.7,0.3-2.6,0.5
				c-0.8,0.2-1.6,0.6-2.4,0.9c-0.8,0.3-1.7,0.5-2.5,0.8c-0.8,0.3-1.6,0.7-2.4,1s-1.7,0.4-2.5,0.8c-0.8,0.4-1.5,0.9-2.2,1.3
				c-0.8,0.4-1.6,0.7-2.3,1.2s-1.4,1.1-2.1,1.6s-1.5,0.9-2.2,1.4s-1.3,1.1-2,1.7c-0.7,0.6-1.3,1.1-2,1.7c-0.6,0.6-1.2,1.3-1.8,1.9
				c-0.6,0.6-1.2,1.2-1.8,1.9c-0.6,0.6-1.1,1.3-1.7,2c-0.5,0.7-1.3,1.2-1.8,1.9c-0.5,0.7-1,1.4-1.4,2.2c-0.5,0.7-1,1.4-1.5,2.2
				c-0.4,0.7-0.7,1.6-1.1,2.4c-0.4,0.8-1,1.4-1.4,2.2c-0.4,0.8-0.6,1.6-0.9,2.5c-0.3,0.8-0.7,1.6-1,2.4c-0.3,0.8-0.5,1.7-0.7,2.5
				c-0.2,0.8-0.5,1.7-0.7,2.5c-0.2,0.8-0.5,1.7-0.7,2.5c-0.2,0.8-0.2,1.7-0.3,2.6c-0.1,0.9-0.1,1.7-0.2,2.6
				c-0.1,0.9-0.2,1.7-0.2,2.6s0,1.7,0,2.6c0,0.9-0.2,1.8-0.2,2.7s0.3,1.7,0.4,2.6s-0.1,1.8,0,2.7s0.6,1.7,0.7,2.6
				c0.2,0.9,0.1,1.8,0.4,2.6c0.2,0.9,0.5,1.7,0.8,2.5c0.3,0.8,0.5,1.7,0.8,2.5c0.3,0.8,0.7,1.6,1.1,2.4c0.3,0.8,0.7,1.6,1.1,2.4
				c0.9,0.3,1,0.1,2,0.1s1.1,0.3,1.9-0.2c-0.4-0.8-0.9-1.5-1.3-2.3c-0.4-0.8-0.6-1.7-1-2.5c-0.3-0.8-0.7-1.6-1-2.5
				c-0.3-0.8-0.3-1.8-0.5-2.6c-0.2-0.9-0.3-1.7-0.5-2.6c-0.2-0.9-0.4-1.7-0.5-2.6s-0.4-1.7-0.5-2.6c-0.1-0.9-0.2-1.8-0.2-2.7
				s-0.2-1.8-0.2-2.7c0-0.9,0.2-1.7,0.3-2.6c0-0.9,0.2-1.7,0.3-2.6c0.1-0.9,0.1-1.7,0.2-2.6c0.1-0.9,0.3-1.7,0.5-2.5
				c0.2-0.8,0.4-1.7,0.6-2.5s0.6-1.6,0.8-2.4c0.3-0.8,0.5-1.7,0.8-2.5c0.3-0.8,0.5-1.7,0.8-2.5c0.3-0.8,0.8-1.5,1.2-2.3
				c0.4-0.8,1-1.4,1.4-2.2c0.4-0.8,0.9-1.5,1.3-2.2c0.5-0.7,0.8-1.5,1.3-2.2s0.9-1.5,1.5-2.1c0.5-0.7,1.1-1.3,1.7-2
				c0.6-0.6,1.1-1.3,1.7-1.9c0.6-0.6,1.2-1.2,1.9-1.8c0.6-0.6,1.3-1.1,2-1.7c0.7-0.6,1.4-1,2.1-1.5s1.4-1.1,2.1-1.6
				c0.7-0.5,1.5-0.9,2.2-1.4c0.7-0.4,1.5-0.9,2.2-1.3c0.8-0.4,1.5-0.8,2.3-1.2c0.8-0.4,1.7-0.5,2.5-0.8c0.8-0.3,1.5-0.9,2.3-1.2
				c0.8-0.3,1.7-0.4,2.5-0.7c0.8-0.2,1.7-0.3,2.5-0.5c0.8-0.2,1.6-0.5,2.5-0.7c0.8-0.2,1.7-0.2,2.6-0.3c0.9-0.1,1.7-0.4,2.6-0.5
				c0.9-0.1,1.7,0.2,2.6,0.2s1.7-0.3,2.6-0.2c0.9,0,1.7,0,2.6,0.1c0.9,0.1,1.7,0.4,2.5,0.5c0.8,0.1,1.7,0.3,2.5,0.4
				c0.8,0.2,1.7,0.1,2.5,0.3c0.8,0.2,1.6,0.6,2.4,0.8c0.8,0.2,1.7,0.4,2.5,0.7c0.8,0.3,1.7,0.4,2.5,0.7s1.6,0.7,2.3,1
				c0.8,0.4,1.5,0.8,2.3,1.2s1.4,1,2.1,1.5c0.7,0.4,1.5,0.8,2.2,1.3s1.4,1,2.1,1.5s1.3,1.1,2,1.6s1.4,1,2,1.6s1.2,1.2,1.8,1.8
				c0.6,0.6,1.3,1.1,1.8,1.8c0.6,0.6,0.9,1.4,1.5,2.1c0.5,0.7,1,1.3,1.5,2s1.1,1.3,1.6,2s0.8,1.5,1.2,2.3c0.4,0.7,0.9,1.4,1.3,2.2
				s0.7,1.5,1.1,2.3c0.4,0.8,0.7,1.6,1,2.4s0.8,1.5,1,2.3c0.3,0.8,0.6,1.6,0.8,2.4c0.2,0.8,0.2,1.7,0.4,2.5c0.2,0.8,0.4,1.7,0.5,2.5
				c0.1,0.8,0.4,1.7,0.5,2.5c0.1,0.8-0.1,1.7,0,2.6c0.1,0.8,0.3,1.6,0.3,2.5c0,0.8,0.1,1.7,0.1,2.5s-0.3,1.6-0.4,2.5
				c-0.1,0.8-0.1,1.7-0.2,2.5s-0.2,1.6-0.3,2.5c-0.1,0.8-0.4,1.6-0.6,2.4c-0.2,0.8-0.1,1.7-0.4,2.5c-0.2,0.8-0.8,1.5-1,2.3
				c-0.3,0.8-0.5,1.6-0.8,2.4c-0.3,0.8-0.5,1.6-0.8,2.3c-0.3,0.8-0.7,1.4-1.1,2.1c0.9,0.4,0.9,0.2,1.9,0.2s1,0.1,1.9-0.3
				c0.4-0.8,0.7-1.5,1-2.3c0.3-0.8,0.7-1.6,1-2.4s0.7-1.6,0.9-2.4c0.3-0.8,0.4-1.7,0.6-2.5c0.2-0.8,0.3-1.7,0.4-2.6
				c0.2-0.8,0.5-1.7,0.6-2.5c0.1-0.9,0.2-1.7,0.3-2.6c0.1-0.9,0.2-1.7,0.3-2.6c0-0.9,0-1.7,0-2.6c0-0.9,0.2-1.7,0.2-2.6
				C-48.8,238.1-49,237.3-49.1,236.4z"/>
		</g>
	</g>
</g>
<g>
	<path d="M-137.8,286.8h-4l-0.8,2.2c-0.2,0.4-0.5,0.6-0.9,0.6c-0.1,0-0.2,0-0.3,0c-0.5-0.2-0.7-0.7-0.5-1.2l3.7-9.8
		c0.1-0.4,0.5-0.6,0.9-0.6c0.4,0,0.7,0.2,0.9,0.6l3.7,9.8c0.2,0.5-0.1,1-0.5,1.2c-0.1,0-0.2,0-0.3,0c-0.4,0-0.7-0.2-0.8-0.6
		L-137.8,286.8z M-138.5,284.9l-1.3-3.6l-1.3,3.6H-138.5z"/>
	<path d="M-122.9,278.8v9.8c0,0.5-0.4,0.9-0.9,0.9c-0.5,0-0.9-0.4-0.9-0.9v-7l-2.4,3.3c-0.2,0.2-0.5,0.4-0.8,0.4h0h0
		c-0.3,0-0.6-0.1-0.8-0.4l-2.4-3.3v7c0,0.5-0.4,0.9-0.9,0.9c-0.5,0-0.9-0.4-0.9-0.9v-9.8c0-0.5,0.4-0.9,0.9-0.9c0,0,0,0,0,0
		c0.3,0,0.6,0.1,0.7,0.4l3.3,4.6l3.3-4.6c0.2-0.2,0.4-0.4,0.8-0.4c0,0,0,0,0,0C-123.4,277.9-122.9,278.3-122.9,278.8z"/>
	<path d="M-119.7,288.6v-9.8c0-0.5,0.4-0.9,0.9-0.9h0c0,0,0,0,0,0h5.4c0.5,0,0.9,0.4,0.9,0.9s-0.4,0.9-0.9,0.9h-4.5v3h3.9
		c0.5,0,0.9,0.4,0.9,0.9c0,0.5-0.4,0.9-0.9,0.9h-3.9v3.1h4.5c0.5,0,0.9,0.4,0.9,0.9c0,0.5-0.4,0.9-0.9,0.9h-5.4c0,0,0,0,0,0l0,0
		C-119.3,289.5-119.7,289.1-119.7,288.6z"/>
	<path d="M-101.8,288.1c0.2,0.5-0.1,1-0.6,1.2c-0.1,0-0.2,0-0.4,0c0,0,0,0,0,0c-0.2,0-0.4,0-0.7-0.2c-0.2-0.1-0.4-0.4-0.5-0.6
		c-0.2-0.5-0.3-1.1-0.3-2c0-0.3-0.1-0.5-0.2-0.7c-0.1-0.2-0.3-0.3-0.5-0.5c-0.3-0.2-0.8-0.4-0.9-0.4h-2v3.6c0,0.5-0.4,0.9-0.9,0.9
		s-0.9-0.4-0.9-0.9v-9.8c0-0.5,0.4-0.9,0.9-0.9c0,0,0,0,0,0h3c2,0,3.6,1.6,3.6,3.6c0,1.1-0.5,2.1-1.3,2.7c0.2,0.2,0.4,0.4,0.6,0.6
		c0.3,0.5,0.5,1.1,0.5,1.8c0,0.5,0,0.8,0.1,1C-102.1,287.6-101.9,287.8-101.8,288.1z M-104.1,281.4c0-1-0.8-1.7-1.7-1.7h-2v3.4h2
		C-104.9,283.1-104.1,282.4-104.1,281.4z"/>
	<path d="M-99,278.8c0-0.5,0.4-0.9,0.9-0.9c0.5,0,0.9,0.4,0.9,0.9v9.8c0,0.5-0.4,0.9-0.9,0.9c-0.5,0-0.9-0.4-0.9-0.9V278.8z"/>
	<path d="M-94.5,283.5c0-3.3,2.8-6,6.1-6c1.5,0,2.8,0.5,3.8,1.3c0.4,0.3,0.5,0.9,0.2,1.3c-0.3,0.4-1,0.5-1.3,0.2
		c-0.7-0.6-1.7-0.9-2.7-0.9c-1.1,0-2.2,0.5-3,1.2c-0.8,0.8-1.2,1.8-1.2,2.9c0,1.1,0.5,2.2,1.2,2.9c0.8,0.7,1.8,1.2,3,1.2
		c1,0,1.9-0.3,2.7-0.9c0.4-0.3,1-0.2,1.3,0.2c0.3,0.4,0.2,1-0.2,1.3c-1,0.8-2.4,1.3-3.8,1.3C-91.8,289.5-94.5,286.8-94.5,283.5z"/>
	<path d="M-75.5,286.8h-4l-0.8,2.2c-0.2,0.4-0.5,0.6-0.9,0.6c-0.1,0-0.2,0-0.3,0c-0.5-0.2-0.7-0.7-0.5-1.2l3.7-9.8
		c0.1-0.4,0.5-0.6,0.9-0.6c0.4,0,0.7,0.2,0.9,0.6l3.7,9.8c0.2,0.5-0.1,1-0.5,1.2c-0.1,0-0.2,0-0.3,0c-0.4,0-0.7-0.2-0.8-0.6
		L-75.5,286.8z M-76.2,284.9l-1.3-3.6l-1.3,3.6H-76.2z"/>
	<path d="M-68.8,288.6c0,0.5-0.4,0.9-0.9,0.9c-0.5,0-0.9-0.4-0.9-0.9v-9.7c0,0,0,0,0,0c0-0.3,0.1-0.6,0.4-0.8c0.4-0.3,1-0.2,1.3,0.2
		l5.4,7.4v-6.9c0-0.5,0.4-0.9,0.9-0.9s0.9,0.4,0.9,0.9v9.7c0,0.5-0.4,0.9-0.9,0.9c-0.3,0-0.5-0.1-0.7-0.3c0,0-0.1-0.1-0.1-0.1
		l-5.3-7.4V288.6z"/>
	<path d="M-144.2,305.4v-12.1c0-0.6,0.5-1.1,1.1-1.1h0c0,0,0,0,0,0h6.7c0.6,0,1.1,0.5,1.1,1.1c0,0.6-0.5,1.2-1.1,1.2h-5.6v3.8h4.8
		c0.6,0,1.1,0.5,1.1,1.1c0,0.6-0.5,1.2-1.1,1.2h-4.8v4.9c0,0.6-0.5,1.1-1.2,1.1C-143.8,306.5-144.2,306-144.2,305.4z"/>
	<path d="M-119.6,293.9c1.3,1.4,2.1,3.2,2.1,5.2s-0.8,3.9-2.1,5.2c-1.2,1.3-3,2.2-4.9,2.2c-2,0-3.8-0.9-5-2.2c-1.3-1.3-2-3.2-2-5.2
		s0.8-3.8,2-5.2c1.3-1.4,3.1-2.2,5-2.2C-122.6,291.7-120.8,292.5-119.6,293.9z M-119.8,299.1c0-1.4-0.6-2.7-1.4-3.6
		c-0.9-0.9-2-1.5-3.3-1.5c-1.3,0-2.5,0.5-3.3,1.5c-0.9,0.9-1.4,2.2-1.4,3.6s0.5,2.7,1.4,3.6c0.9,0.9,2,1.5,3.3,1.5
		c1.2,0,2.4-0.6,3.3-1.5C-120.4,301.8-119.8,300.5-119.8,299.1z"/>
	<path d="M-102.6,304.8c0.2,0.6-0.1,1.2-0.7,1.4c-0.1,0-0.2,0.1-0.5,0.1c0,0,0,0,0,0c-0.2,0-0.5,0-0.8-0.2c-0.3-0.2-0.5-0.4-0.7-0.7
		c-0.3-0.6-0.4-1.3-0.4-2.5c0-0.4-0.1-0.7-0.2-0.9c-0.1-0.2-0.4-0.4-0.6-0.6c-0.4-0.3-1-0.5-1.2-0.5h-2.4v4.5c0,0.6-0.5,1.1-1.2,1.1
		c-0.6,0-1.1-0.5-1.1-1.1v-12.1c0-0.6,0.5-1.1,1.1-1.1c0,0,0,0,0,0h3.7c2.5,0,4.4,2,4.4,4.4c0,1.4-0.6,2.6-1.6,3.4
		c0.3,0.2,0.5,0.5,0.7,0.8c0.4,0.6,0.7,1.4,0.7,2.2c0,0.6,0,1,0.1,1.2C-103,304.2-102.7,304.4-102.6,304.8z M-105.5,296.5
		c0-1.2-0.9-2.1-2.1-2.1h-2.5v4.2h2.5C-106.4,298.6-105.5,297.7-105.5,296.5z"/>
	<path d="M-98,305.4v-12.1c0-0.6,0.5-1.1,1.1-1.1h0c0,0,0,0,0,0h6.7c0.6,0,1.1,0.5,1.1,1.1c0,0.6-0.5,1.2-1.1,1.2h-5.6v3.8h4.8
		c0.6,0,1.1,0.5,1.1,1.1c0,0.6-0.5,1.2-1.1,1.2h-4.8v3.8h5.6c0.6,0,1.1,0.5,1.1,1.2c0,0.6-0.5,1.1-1.1,1.1h-6.7c0,0,0,0,0,0l0,0
		C-97.5,306.5-98,306-98,305.4z"/>
	<path d="M-85,302.9c0.4-0.5,1-0.5,1.5-0.1c0.9,0.7,2.5,1.6,3.9,1.6c1,0,2-0.3,2.6-0.8c0.6-0.5,0.9-1,0.9-1.5c0-0.3-0.1-0.5-0.2-0.7
		c-0.1-0.2-0.3-0.4-0.6-0.6c-0.6-0.4-1.6-0.7-2.8-1h0c-1-0.2-1.9-0.4-2.7-0.8c-0.8-0.4-1.5-0.9-1.9-1.6c-0.3-0.5-0.5-1.1-0.5-1.7
		c0-1.2,0.7-2.3,1.6-3c1-0.7,2.2-1.1,3.6-1.1c2,0,3.4,1,4.5,1.6c0.5,0.3,0.6,1,0.3,1.5c-0.3,0.5-1,0.6-1.5,0.3
		c-1-0.7-2.1-1.3-3.3-1.3c-0.9,0-1.8,0.3-2.3,0.7c-0.6,0.4-0.8,0.9-0.8,1.3c0,0.2,0,0.4,0.1,0.6c0.1,0.2,0.3,0.4,0.6,0.5
		c0.5,0.4,1.5,0.7,2.6,0.9h0c1,0.2,2,0.5,2.8,0.9c0.8,0.4,1.6,0.9,2.1,1.7c0.3,0.5,0.5,1.1,0.5,1.7c0,1.3-0.7,2.5-1.8,3.2
		c-1,0.7-2.3,1.2-3.8,1.2c-2.2,0-4.1-1.1-5.3-2.1C-85.3,304.1-85.3,303.4-85,302.9z"/>
	<path d="M-61,294.4h-3.3v11c0,0.6-0.5,1.1-1.1,1.1c-0.6,0-1.1-0.5-1.1-1.1v-11h-3.3c-0.6,0-1.1-0.5-1.1-1.2c0-0.6,0.5-1.1,1.1-1.1
		h8.8c0.6,0,1.1,0.5,1.1,1.1C-59.9,293.8-60.4,294.4-61,294.4z"/>
	<path d="M-144.4,317.8v-7.7c0-0.4,0.3-0.7,0.7-0.7h0c0,0,0,0,0,0h4.2c0.4,0,0.7,0.3,0.7,0.7c0,0.4-0.3,0.7-0.7,0.7h-3.5v2.4h3
		c0.4,0,0.7,0.3,0.7,0.7c0,0.4-0.3,0.7-0.7,0.7h-3v3.1c0,0.4-0.3,0.7-0.7,0.7S-144.4,318.2-144.4,317.8z"/>
	<path d="M-129.6,310.5c0.8,0.9,1.3,2,1.3,3.3c0,1.3-0.5,2.4-1.3,3.3c-0.8,0.8-1.9,1.4-3.1,1.4c-1.2,0-2.4-0.5-3.2-1.4
		c-0.8-0.8-1.3-2-1.3-3.3c0-1.3,0.5-2.4,1.3-3.3c0.8-0.9,1.9-1.4,3.2-1.4C-131.5,309.2-130.4,309.7-129.6,310.5z M-129.8,313.8
		c0-0.9-0.4-1.7-0.9-2.3c-0.5-0.6-1.3-0.9-2.1-0.9c-0.8,0-1.6,0.3-2.1,0.9c-0.5,0.6-0.9,1.4-0.9,2.3s0.3,1.7,0.9,2.3
		c0.5,0.6,1.3,0.9,2.1,0.9c0.8,0,1.5-0.4,2.1-0.9C-130.2,315.5-129.8,314.7-129.8,313.8z"/>
	<path d="M-122.6,318.5c-2.1,0-3.8-1.7-3.8-3.8v-4.6c0-0.4,0.3-0.7,0.7-0.7c0.4,0,0.7,0.3,0.7,0.7v4.6c0,1.3,1,2.3,2.3,2.3
		c1.3,0,2.3-1,2.3-2.3v-4.6c0-0.4,0.3-0.7,0.7-0.7c0.4,0,0.7,0.3,0.7,0.7v4.6C-118.8,316.8-120.5,318.5-122.6,318.5z"/>
	<path d="M-114.5,317.8c0,0.4-0.3,0.7-0.7,0.7c-0.4,0-0.7-0.3-0.7-0.7v-7.5c0,0,0,0,0,0c0-0.2,0.1-0.5,0.3-0.6
		c0.3-0.2,0.8-0.2,1,0.2l4.2,5.8v-5.4c0-0.4,0.3-0.7,0.7-0.7s0.7,0.3,0.7,0.7v7.5c0,0.4-0.3,0.7-0.7,0.7c-0.2,0-0.4-0.1-0.5-0.3
		c0,0-0.1-0.1-0.1-0.1l-4.2-5.8V317.8z"/>
	<path d="M-106.6,317.8v-7.7c0-0.4,0.3-0.7,0.7-0.7h1.5c2.5,0,4.5,2,4.5,4.5c0,2.5-2,4.6-4.5,4.6h-1.5
		C-106.3,318.5-106.6,318.2-106.6,317.8z M-105.2,317.1h0.8c1.7,0,3.1-1.4,3.1-3.1c0-1.7-1.4-3.1-3.1-3.1h-0.8V317.1z"/>
	<path d="M-93.5,316.4h-3.2l-0.6,1.7c-0.1,0.3-0.4,0.5-0.7,0.5c-0.1,0-0.2,0-0.2,0c-0.4-0.1-0.6-0.6-0.4-0.9l2.9-7.6
		c0.1-0.3,0.4-0.5,0.7-0.5c0.3,0,0.6,0.2,0.7,0.5l2.9,7.6c0.1,0.4-0.1,0.8-0.4,0.9c-0.1,0-0.2,0-0.2,0c-0.3,0-0.6-0.2-0.7-0.5
		L-93.5,316.4z M-94,314.9l-1.1-2.8l-1.1,2.8H-94z"/>
	<path d="M-85.4,310.9h-2.1v6.9c0,0.4-0.3,0.7-0.7,0.7c-0.4,0-0.7-0.3-0.7-0.7v-6.9H-91c-0.4,0-0.7-0.3-0.7-0.7
		c0-0.4,0.3-0.7,0.7-0.7h5.5c0.4,0,0.7,0.3,0.7,0.7C-84.7,310.5-85.1,310.9-85.4,310.9z"/>
	<path d="M-82.5,310.1c0-0.4,0.3-0.7,0.7-0.7c0.4,0,0.7,0.3,0.7,0.7v7.7c0,0.4-0.3,0.7-0.7,0.7c-0.4,0-0.7-0.3-0.7-0.7V310.1z"/>
	<path d="M-71.5,310.5c0.8,0.9,1.3,2,1.3,3.3c0,1.3-0.5,2.4-1.3,3.3c-0.8,0.8-1.9,1.4-3.1,1.4c-1.2,0-2.4-0.5-3.2-1.4
		c-0.8-0.8-1.3-2-1.3-3.3c0-1.3,0.5-2.4,1.3-3.3c0.8-0.9,1.9-1.4,3.2-1.4C-73.4,309.2-72.2,309.7-71.5,310.5z M-71.6,313.8
		c0-0.9-0.4-1.7-0.9-2.3c-0.5-0.6-1.3-0.9-2.1-0.9c-0.8,0-1.6,0.3-2.1,0.9c-0.5,0.6-0.9,1.4-0.9,2.3s0.3,1.7,0.9,2.3
		c0.5,0.6,1.3,0.9,2.1,0.9c0.8,0,1.5-0.4,2.1-0.9C-72,315.5-71.6,314.7-71.6,313.8z"/>
	<path d="M-66.5,317.8c0,0.4-0.3,0.7-0.7,0.7c-0.4,0-0.7-0.3-0.7-0.7v-7.5c0,0,0,0,0,0c0-0.2,0.1-0.5,0.3-0.6c0.3-0.2,0.8-0.2,1,0.2
		l4.2,5.8v-5.4c0-0.4,0.3-0.7,0.7-0.7s0.7,0.3,0.7,0.7v7.5c0,0.4-0.3,0.7-0.7,0.7c-0.2,0-0.4-0.1-0.5-0.3c0,0-0.1-0.1-0.1-0.1
		l-4.2-5.8V317.8z"/>
</g>
</svg>
