<?xml version="1.0" encoding="utf-8"?>
<!-- Generator: Adobe Illustrator 18.1.1, SVG Export Plug-In . SVG Version: 6.00 Build 0)  -->
<!DOCTYPE svg PUBLIC "-//W3C//DTD SVG 1.1//EN" "http://www.w3.org/Graphics/SVG/1.1/DTD/svg11.dtd">
<svg version="1.1" xmlns="http://www.w3.org/2000/svg" xmlns:xlink="http://www.w3.org/1999/xlink" x="0px" y="0px" width="100px"
	 height="100px" viewBox="0 0 100 100" enable-background="new 0 0 100 100" xml:space="preserve">
<g id="Layer_1">
	<g>
		<g>
			<path fill="#869D7A" d="M95.4,50C95.4,75.2,75,95.6,50,95.6S4.6,75.2,4.6,50C4.6,24.8,25,4.4,50,4.4S95.4,24.8,95.4,50z"/>
		</g>
	</g>
	<circle fill="none" stroke="#FFFFFF" stroke-width="2" stroke-miterlimit="10" cx="50" cy="50" r="41.1"/>
	<path fill="none" stroke="#2B3A00" stroke-width="2" stroke-miterlimit="10" d="M69.6,33H38v-2.4c0-0.5-0.7-0.6-1.2-0.6H28
		c-0.5,0-1,0.1-1,0.6v3.3c0,0.1,0.1,0.3,0.1,0.4c0,0.1,0,0.2,0,0.4l0,30.3H71l0-30.4C71,33.8,70.4,33,69.6,33z"/>
	<g>
		<path fill="#F5F5F5" d="M25.2,65.5l-4.7-24.8c0-1.2,0.9-2,1.9-2h41.8c1.1,0,2,0.9,2,2L71,65.5H25.2z"/>
		<path fill="#FFFFFF" d="M64.3,39.2c0.8,0,1.5,0.7,1.5,1.5L70.4,65H25.6L21,40.6c0-0.8,0.7-1.5,1.5-1.5H64.3 M64.3,38.2H22.4
			c-1.4,0-2.5,1.1-2.5,2.5v0.1l0,0.1l4.7,24.4l0.2,0.8h0.8h44.7h1.2l-0.2-1.2l-4.6-24.3C66.7,39.2,65.6,38.2,64.3,38.2L64.3,38.2z"
			/>
	</g>
</g>
<g id="Layer_2">
</g>
</svg>
