<?xml version="1.0" encoding="utf-8"?>
<!-- Generator: Adobe Illustrator 18.1.1, SVG Export Plug-In . SVG Version: 6.00 Build 0)  -->
<!DOCTYPE svg PUBLIC "-//W3C//DTD SVG 1.1//EN" "http://www.w3.org/Graphics/SVG/1.1/DTD/svg11.dtd">
<svg version="1.1" xmlns="http://www.w3.org/2000/svg" xmlns:xlink="http://www.w3.org/1999/xlink" x="0px" y="0px" width="100px"
	 height="100px" viewBox="0 0 100 100" enable-background="new 0 0 100 100" xml:space="preserve">
<g id="Layer_1">
	<g>
		<g>
			<path fill="#869D7A" d="M95.4,50C95.4,75.2,75,95.6,50,95.6S4.6,75.2,4.6,50C4.6,24.8,25,4.4,50,4.4S95.4,24.8,95.4,50z"/>
		</g>
	</g>
	<circle fill="none" stroke="#FFFFFF" stroke-width="2" stroke-miterlimit="10" cx="50" cy="50" r="41.1"/>
	<path fill="#2B3A00" d="M28.6,65l0-30.3c0-0.8,0.7-1.5,1.5-1.5h39.5c0.8,0,1.5,0.7,1.5,1.5L71,65H28.6z"/>
	<g>
		<path fill="#F5F5F5" d="M28,65l-4.7-24.4c0-0.8,0.7-1.5,1.5-1.5h39.5c0.8,0,1.5,0.7,1.5,1.5L70.4,65H28z"/>
	</g>
	<path fill="#2B3A00" d="M36.8,35.5h-7.3c-0.5,0-0.9-0.4-0.9-0.9v-2.4c0-0.5,0.4-0.9,0.9-0.9h7.3c0.5,0,0.9,0.4,0.9,0.9v2.4
		C37.7,35.1,37.3,35.5,36.8,35.5z"/>
</g>
<g id="Layer_2">
</g>
</svg>
