<?xml version="1.0" encoding="utf-8"?>
<!-- Generator: Adobe Illustrator 18.1.1, SVG Export Plug-In . SVG Version: 6.00 Build 0)  -->
<!DOCTYPE svg PUBLIC "-//W3C//DTD SVG 1.1//EN" "http://www.w3.org/Graphics/SVG/1.1/DTD/svg11.dtd">
<svg version="1.1" xmlns="http://www.w3.org/2000/svg" xmlns:xlink="http://www.w3.org/1999/xlink" x="0px" y="0px" width="100px"
	 height="100px" viewBox="0 0 100 100" enable-background="new 0 0 100 100" xml:space="preserve">
<g id="Layer_1">
	<g>
		<g>
			<path fill="#869D7A" d="M95.4,50C95.4,75.2,75,95.6,50,95.6S4.6,75.2,4.6,50C4.6,24.8,25,4.4,50,4.4S95.4,24.8,95.4,50z"/>
		</g>
	</g>
	<g>
		<g>
			<polygon fill="none" points="32,74 63,74 63,71 36,71 36,27 32,27 			"/>
			<polygon fill="#FFFFFF" points="68,23 36,23 36,26 64,26 64,71 68,71 			"/>
			<path fill="#FFFFFF" d="M35.4,26H31v49h33v-4.1V26H35.4z M63,74H32V27h3.4H63v43.9V74z"/>
		</g>
		<rect x="35.3" y="30.7" fill="#FFFFFF" width="13.8" height="12.8"/>
		<rect x="51.9" y="30.7" fill="#FFFFFF" width="9.4" height="0.6"/>
		<rect x="51.9" y="34.7" fill="#FFFFFF" width="9.4" height="0.6"/>
		<rect x="51.9" y="38.5" fill="#FFFFFF" width="9.4" height="0.6"/>
		<rect x="51.9" y="42.5" fill="#FFFFFF" width="9.4" height="0.6"/>
		<rect x="35.3" y="46.2" fill="#FFFFFF" width="26" height="0.6"/>
		<rect x="35.3" y="50.2" fill="#FFFFFF" width="26" height="0.6"/>
		<rect x="35.3" y="54.1" fill="#FFFFFF" width="26" height="0.6"/>
		<rect x="35.3" y="58" fill="#FFFFFF" width="26" height="0.6"/>
		<rect x="35.3" y="62" fill="#FFFFFF" width="26" height="0.6"/>
		<rect x="35.3" y="66" fill="#FFFFFF" width="26" height="0.6"/>
		<rect x="35.3" y="70" fill="#FFFFFF" width="26" height="0.6"/>
	</g>
	<circle fill="none" stroke="#FFFFFF" stroke-width="2" stroke-miterlimit="10" cx="50" cy="50" r="41.1"/>
</g>
<g id="Layer_2">
</g>
</svg>
