<?xml version="1.0" encoding="utf-8"?>
<!-- Generator: Adobe Illustrator 18.1.1, SVG Export Plug-In . SVG Version: 6.00 Build 0)  -->
<!DOCTYPE svg PUBLIC "-//W3C//DTD SVG 1.1//EN" "http://www.w3.org/Graphics/SVG/1.1/DTD/svg11.dtd">
<svg version="1.1" xmlns="http://www.w3.org/2000/svg" xmlns:xlink="http://www.w3.org/1999/xlink" x="0px" y="0px" width="100px"
	 height="100px" viewBox="0 0 100 100" enable-background="new 0 0 100 100" xml:space="preserve">
<g id="Layer_1">
	<g>
		<g>
			<path fill="#869D7A" d="M95.4,50C95.4,75.2,75,95.6,50,95.6S4.6,75.2,4.6,50C4.6,24.8,25,4.4,50,4.4S95.4,24.8,95.4,50z"/>
		</g>
	</g>
	<circle fill="none" stroke="#FFFFFF" stroke-width="2" stroke-miterlimit="10" cx="50" cy="50" r="41.1"/>
	<path fill="none" stroke="#2B3A00" stroke-width="2" stroke-miterlimit="10" d="M69.6,33H38v-2.4c0-0.5-0.7-0.6-1.2-0.6H28
		c-0.5,0-1,0.1-1,0.6v3.3c0,0.1,0.1,0.3,0.1,0.4c0,0.1,0,0.2,0,0.4l0,30.3H71l0-30.4C71,33.8,70.4,33,69.6,33z"/>
	<g>
		<path fill="#869D7A" d="M27.1,66l-4.8-25.3v-0.1c0-1.4,1.1-2.5,2.5-2.5h39.5c1.3,0,2.4,1,2.5,2.3L71.6,66H27.1z"/>
		<path fill="#F5F5F5" d="M64.3,39.2c0.8,0,1.5,0.7,1.5,1.5L70.4,65H28l-4.7-24.4c0-0.8,0.7-1.5,1.5-1.5H64.3 M64.3,37.2H24.8
			c-1.9,0-3.5,1.5-3.5,3.5v0.2l0,0.2L26,65.4l0.3,1.6H28h42.4h2.4l-0.5-2.4l-4.6-24.3C67.6,38.6,66.1,37.2,64.3,37.2L64.3,37.2z"/>
	</g>
</g>
<g id="Layer_2">
</g>
</svg>
