<?xml version="1.0" encoding="utf-8"?>
<!-- Generator: Adobe Illustrator 18.1.1, SVG Export Plug-In . SVG Version: 6.00 Build 0)  -->
<!DOCTYPE svg PUBLIC "-//W3C//DTD SVG 1.1//EN" "http://www.w3.org/Graphics/SVG/1.1/DTD/svg11.dtd">
<svg version="1.1" xmlns="http://www.w3.org/2000/svg" xmlns:xlink="http://www.w3.org/1999/xlink" x="0px" y="0px" width="100px"
	 height="100px" viewBox="0 0 100 100" enable-background="new 0 0 100 100" xml:space="preserve">
<symbol  id="gavel" viewBox="-37.6 -42.9 75.2 85.7">
	<g>
		<path fill="#FFFFFF" d="M-15.6,40.2c-3,3.3-8.1,4.2-12.5-1.7c-7.7-10.5-9.2-24.1-9.5-27.7c-0.2-3.6,2.1-11.3,11.9-9.1
			c2.9,0.4,5,0.7,6.4,0.7l9.5,32.4C-11.8,35.7-13.3,37.7-15.6,40.2z"/>
		<path fill="#FFFFFF" d="M-5.6,36.9c-1.8,0.5-3.6-0.2-4-1.6l-0.2-0.5l-9.5-32.4l-0.1-0.4c-0.4-1.4,0.7-3,2.5-3.5
			c1.8-0.5,3.6,0.2,4,1.6l0.1,0.5L-3.2,33l0.1,0.5C-2.7,34.8-3.8,36.4-5.6,36.9z"/>
		<path fill="#FFFFFF" d="M37.4,19.5c-0.6,7.3-5.5,9.2-9.8,7.9c-3.2-1-5.4-1.9-7.6-1.6L10.7-6.4c1.3-0.6,3-2,5.6-4.2
			c7.2-7,13.2-1.6,14.9,1.6C32.8-5.9,38.6,6.5,37.4,19.5z"/>
		<path fill="#FFFFFF" d="M17.8,30.1c-1.8,0.5-3.6-0.2-4-1.6l-0.2-0.5L4.1-4.4L4-4.8c-0.4-1.4,0.7-3,2.5-3.5c1.8-0.5,3.6,0.2,4,1.6
			l0.1,0.3l9.5,32.3l0.2,0.7C20.7,28,19.6,29.5,17.8,30.1z"/>
	</g>
	<g>
		<path fill="#FFFFFF" d="M-17.6-28.2c-1.5-5-4.3-11.4,1.3-14s7.2,3.1,8.8,10.9C-6.3-24.6-1.8-7.9-0.4-3l-7.8,2.3
			C-10.4-6.7-16.4-24.1-17.6-28.2z"/>
		<polygon fill="#FFFFFF" points="-3.2,33 -12.7,0.6 -8.3,-0.7 -0.4,-3 4.1,-4.4 13.6,27.9 		"/>
	</g>
</symbol>
<g id="Layer_1">
	<g>
		<ellipse fill="#2B2B2B" cx="50" cy="50" rx="45.4" ry="45.6"/>
	</g>
	
		<use xlink:href="#gavel"  width="75.2" height="85.7" id="XMLID_4_" x="-37.6" y="-42.9" transform="matrix(0.5971 0 0 -0.6009 51.9769 51.3606)" overflow="visible"/>
	<circle fill="none" stroke="#FFFFFF" stroke-width="2" stroke-miterlimit="10" cx="50" cy="50" r="41.1"/>
</g>
<g id="Layer_2">
</g>
</svg>
