<?xml version="1.0" encoding="utf-8"?>
<!-- Generator: Adobe Illustrator 18.1.1, SVG Export Plug-In . SVG Version: 6.00 Build 0)  -->
<!DOCTYPE svg PUBLIC "-//W3C//DTD SVG 1.1//EN" "http://www.w3.org/Graphics/SVG/1.1/DTD/svg11.dtd">
<svg version="1.1" xmlns="http://www.w3.org/2000/svg" xmlns:xlink="http://www.w3.org/1999/xlink" x="0px" y="0px" width="100px"
	 height="100px" viewBox="0 0 100 100" enable-background="new 0 0 100 100" xml:space="preserve">
<g id="Layer_1">
	<path fill="#2B2B2B" d="M95.4,50C95.4,75.2,75,95.6,50,95.6S4.6,75.2,4.6,50C4.6,24.8,25,4.4,50,4.4S95.4,24.8,95.4,50z"/>
	<g>
		<rect x="0" y="28.4" fill="#F5F5F5" width="99.7" height="42.7"/>
	</g>
	<text transform="matrix(1 0 0 1 19.5025 65.5598)"><tspan x="0" y="0" fill="#2B3A00" font-family="'AvenirNextCondensed-DemiBold'" font-size="45.9707">A</tspan><tspan x="23.3" y="0" fill="#2B3A00" font-family="'AvenirNextCondensed-DemiBold'" font-size="45.9707">F</tspan><tspan x="41.5" y="0" fill="#2B3A00" font-family="'AvenirNextCondensed-DemiBold'" font-size="45.9707">F</tspan></text>
	<text transform="matrix(1 0 0 1 31.4746 25.0664)" fill="#F5F5F5" font-family="'AvenirNextCondensed-Medium'" font-size="9.7778">SUPPORT</text>
	<path fill="#F5F5F5" d="M58.2,89.4c-2.5-0.9-4.3-2.8-5.6-4.8c1.5,0.4,3.1,0.5,4.4,0.5c0.3,0,0.3-0.5,0.1-0.6
		c-2.2-0.8-3.8-2.5-5-4.3c1,0.2,2,0.3,2.9,0.3c0.2,0,0.2-0.3,0-0.4c-2.9-1-4.3-4.2-4.9-5.9c0-0.1-0.1-0.1-0.1-0.1c0,0,0,0,0,0
		c0,0,0,0-0.1,0c0,0,0,0-0.1,0c0,0,0,0,0,0c0,0,0,0,0,0.1c-0.6,1.7-2.1,4.9-4.9,5.9c-0.2,0.1-0.2,0.4,0,0.4c0.9,0,1.9-0.1,2.9-0.3
		c-1.1,1.8-2.8,3.5-5,4.3c-0.3,0.1-0.2,0.6,0.1,0.6c1.3,0,2.9-0.1,4.4-0.5c-1.3,2-3.2,3.9-5.6,4.8c-0.3,0.1-0.3,0.6,0.1,0.7
		c2.6,0.4,5.7,0.5,8.4,0.4c2.4,0,5.7,0,8.1-0.4C58.4,90,58.5,89.5,58.2,89.4z"/>
	<path fill="#F5F5F5" d="M65.4,82.2c-1.3-0.5-2.3-1.5-3.1-2.6c0.8,0.2,1.7,0.3,2.4,0.3c0.2,0,0.2-0.3,0-0.3
		c-1.2-0.4-2.1-1.4-2.7-2.3c0.5,0.1,1.1,0.2,1.6,0.2c0.1,0,0.1-0.2,0-0.2c-1.6-0.5-2.4-2.3-2.7-3.2c0,0,0-0.1-0.1-0.1c0,0,0,0,0,0
		c0,0,0,0,0,0c0,0,0,0,0,0c0,0,0,0,0,0c0,0,0,0,0,0c-0.3,0.9-1.1,2.7-2.7,3.2c-0.1,0-0.1,0.2,0,0.2c0.5,0,1,0,1.6-0.2
		c-0.6,1-1.5,1.9-2.7,2.4c-0.2,0.1-0.1,0.3,0,0.3c0.7,0,1.6-0.1,2.4-0.3c-0.7,1.1-1.7,2.1-3.1,2.6c-0.2,0.1-0.1,0.3,0,0.4
		c1.4,0.2,3.1,0.3,4.5,0.2c1.3,0,3.1,0,4.4-0.2C65.5,82.5,65.6,82.3,65.4,82.2z"/>
	<path fill="#F5F5F5" d="M43.4,82.2c-1.3-0.5-2.3-1.5-3.1-2.6c0.8,0.2,1.7,0.3,2.4,0.3c0.2,0,0.2-0.3,0-0.3
		c-1.2-0.4-2.1-1.4-2.7-2.3c0.5,0.1,1.1,0.2,1.6,0.2c0.1,0,0.1-0.2,0-0.2c-1.6-0.5-2.4-2.3-2.7-3.2c0,0,0-0.1-0.1-0.1c0,0,0,0,0,0
		c0,0,0,0,0,0c0,0,0,0,0,0c0,0,0,0,0,0c0,0,0,0,0,0c-0.3,0.9-1.1,2.7-2.7,3.2c-0.1,0-0.1,0.2,0,0.2c0.5,0,1,0,1.6-0.2
		c-0.6,1-1.5,1.9-2.7,2.4c-0.2,0.1-0.1,0.3,0,0.3c0.7,0,1.6-0.1,2.4-0.3c-0.7,1.1-1.7,2.1-3.1,2.6c-0.2,0.1-0.1,0.3,0,0.4
		c1.4,0.2,3.1,0.3,4.5,0.2c1.3,0,3.1,0,4.4-0.2C43.5,82.5,43.6,82.3,43.4,82.2z"/>
	<circle fill="none" stroke="#F5F5F5" stroke-width="2" stroke-miterlimit="10" cx="50" cy="50" r="41.1"/>
</g>
<g id="Layer_2">
</g>
</svg>
