<?xml version="1.0" encoding="utf-8"?>
<!-- Generator: Adobe Illustrator 18.1.1, SVG Export Plug-In . SVG Version: 6.00 Build 0)  -->
<!DOCTYPE svg PUBLIC "-//W3C//DTD SVG 1.1//EN" "http://www.w3.org/Graphics/SVG/1.1/DTD/svg11.dtd">
<svg version="1.1" xmlns="http://www.w3.org/2000/svg" xmlns:xlink="http://www.w3.org/1999/xlink" x="0px" y="0px" width="100px"
	 height="100px" viewBox="0 0 100 100" enable-background="new 0 0 100 100" xml:space="preserve">
<g id="Layer_1">
	<g>
		<ellipse fill="#2B3A00" cx="50" cy="50" rx="45.4" ry="45.6"/>
	</g>
	<g>
		<rect x="59.9" y="41" fill="#FFFFFF" width="8.4" height="0.7"/>
		<rect x="59.9" y="43.7" fill="#FFFFFF" width="8.4" height="0.7"/>
		<rect x="59.9" y="46.3" fill="#FFFFFF" width="8.4" height="0.7"/>
		<rect x="59.9" y="49" fill="#FFFFFF" width="8.4" height="0.7"/>
		<rect x="59.9" y="51.7" fill="#FFFFFF" width="8.4" height="0.7"/>
		<rect x="59.9" y="54.4" fill="#FFFFFF" width="8.4" height="0.7"/>
		<rect x="59.9" y="57.1" fill="#FFFFFF" width="8.4" height="0.7"/>
		<g>
			<rect x="28.8" y="23" fill="none" stroke="#FFFFFF" stroke-width="1.3536" stroke-miterlimit="10" width="42.3" height="54"/>
			<rect x="31.7" y="25.7" fill="#FFFFFF" width="36.6" height="7.6"/>
			<rect x="31.7" y="35.4" fill="#FFFFFF" width="16.4" height="24"/>
			<rect x="50" y="35.5" fill="#FFFFFF" width="18.3" height="2.8"/>
			<rect x="31.7" y="61.5" fill="#FFFFFF" width="36.6" height="2.9"/>
			<rect x="57.6" y="66" fill="#FFFFFF" width="10.7" height="7.6"/>
			<rect x="50" y="41" fill="#FFFFFF" width="8.4" height="0.7"/>
			<rect x="50" y="43.7" fill="#FFFFFF" width="8.4" height="0.7"/>
			<rect x="50" y="46.3" fill="#FFFFFF" width="8.4" height="0.7"/>
			<rect x="50" y="49" fill="#FFFFFF" width="8.4" height="0.7"/>
			<rect x="50" y="51.7" fill="#FFFFFF" width="8.4" height="0.7"/>
			<rect x="50" y="54.4" fill="#FFFFFF" width="8.4" height="0.7"/>
			<rect x="50" y="57.1" fill="#FFFFFF" width="8.4" height="0.7"/>
			<rect x="31.7" y="67.3" fill="#FFFFFF" width="11.1" height="0.7"/>
			<rect x="31.7" y="70.1" fill="#FFFFFF" width="11.1" height="0.7"/>
			<rect x="31.7" y="72.6" fill="#FFFFFF" width="11.1" height="0.7"/>
			<rect x="44.8" y="67.3" fill="#FFFFFF" width="11.1" height="0.7"/>
			<rect x="44.8" y="70.1" fill="#FFFFFF" width="11.1" height="0.7"/>
			<rect x="44.8" y="72.6" fill="#FFFFFF" width="11.1" height="0.7"/>
		</g>
	</g>
	<circle fill="none" stroke="#FFFFFF" stroke-width="2" stroke-miterlimit="10" cx="50" cy="50" r="41.1"/>
</g>
<g id="Layer_2">
</g>
</svg>
